<?xml version="1.0" encoding="utf-8"?>
<!-- Generator: Adobe Illustrator 20.1.0, SVG Export Plug-In . SVG Version: 6.00 Build 0)  -->
<svg version="1.1" id="Calque_1" xmlns="http://www.w3.org/2000/svg" xmlns:xlink="http://www.w3.org/1999/xlink" x="0px" y="0px"
	 viewBox="0 0 438 491.5" style="enable-background:new 0 0 438 491.5;" xml:space="preserve">
<style type="text/css">
	.st0{fill:#FFFFFF;}
	.st1{fill:#2C945C;}
</style>
<g>
	<rect x="155.6" y="74.4" class="st0" width="6.8" height="23.2"/>
	
		<rect x="155.6" y="74.4" transform="matrix(-1.836970e-16 1 -1 -1.836970e-16 244.9442 -72.9832)" class="st0" width="6.8" height="23.2"/>
</g>
<g>
	<rect x="52.6" y="74.4" class="st1" width="6.8" height="23.2"/>
	
		<rect x="52.6" y="74.4" transform="matrix(-1.836970e-16 1 -1 -1.836970e-16 142.0102 29.9508)" class="st1" width="6.8" height="23.2"/>
</g>
<g>
	<rect x="87" y="74.4" class="st1" width="6.8" height="23.2"/>
	
		<rect x="87" y="74.4" transform="matrix(-1.836970e-16 1 -1 -1.836970e-16 176.3216 -4.3605)" class="st1" width="6.8" height="23.2"/>
</g>
<g>
	<rect x="121.3" y="74.4" class="st1" width="6.8" height="23.2"/>
	
		<rect x="121.3" y="74.4" transform="matrix(-1.836970e-16 1 -1 -1.836970e-16 210.6329 -38.6719)" class="st1" width="6.8" height="23.2"/>
</g>
<rect x="155.6" y="74.4" class="st1" width="6.8" height="13"/>
<rect x="147.4" y="82.6" class="st1" width="23.2" height="4.8"/>
<g>
	<rect x="189.9" y="74.4" class="st0" width="6.8" height="23.2"/>
	
		<rect x="189.9" y="74.4" transform="matrix(-1.836970e-16 1 -1 -1.836970e-16 279.2556 -107.2945)" class="st0" width="6.8" height="23.2"/>
</g>
<g>
	<rect x="224.2" y="74.4" class="st0" width="6.8" height="23.2"/>
	
		<rect x="224.2" y="74.4" transform="matrix(-1.836970e-16 1 -1 -1.836970e-16 313.5669 -141.6059)" class="st0" width="6.8" height="23.2"/>
</g>
<g>
	<rect x="258.5" y="74.4" class="st0" width="6.8" height="23.2"/>
	
		<rect x="258.5" y="74.4" transform="matrix(-1.836970e-16 1 -1 -1.836970e-16 347.8783 -175.9172)" class="st0" width="6.8" height="23.2"/>
</g>
<g>
	<rect x="292.8" y="74.4" class="st0" width="6.8" height="23.2"/>
	
		<rect x="292.8" y="74.4" transform="matrix(-1.836970e-16 1 -1 -1.836970e-16 382.1896 -210.2286)" class="st0" width="6.8" height="23.2"/>
</g>
<g>
	<rect x="327.1" y="74.4" class="st0" width="6.8" height="23.2"/>
	
		<rect x="327.1" y="74.4" transform="matrix(-1.836970e-16 1 -1 -1.836970e-16 416.5009 -244.5399)" class="st0" width="6.8" height="23.2"/>
</g>
<g>
	<rect x="361.4" y="74.4" class="st0" width="6.8" height="23.2"/>
	
		<rect x="361.4" y="74.4" transform="matrix(-1.836970e-16 1 -1 -1.836970e-16 450.8123 -278.8512)" class="st0" width="6.8" height="23.2"/>
</g>
<g>
	<rect x="52.6" y="113.8" class="st0" width="6.8" height="23.2"/>
	
		<rect x="52.6" y="113.8" transform="matrix(-1.836970e-16 1 -1 -1.836970e-16 181.3983 69.3388)" class="st0" width="6.8" height="23.2"/>
</g>
<g>
	<rect x="87" y="113.8" class="st0" width="6.8" height="23.2"/>
	
		<rect x="87" y="113.8" transform="matrix(-1.836970e-16 1 -1 -1.836970e-16 215.7096 35.0275)" class="st0" width="6.8" height="23.2"/>
</g>
<g>
	<rect x="121.3" y="113.8" class="st0" width="6.8" height="23.2"/>
	
		<rect x="121.3" y="113.8" transform="matrix(-1.836970e-16 1 -1 -1.836970e-16 250.0209 0.7162)" class="st0" width="6.8" height="23.2"/>
</g>
<g>
	<rect x="155.6" y="113.8" class="st0" width="6.8" height="23.2"/>
	
		<rect x="155.6" y="113.8" transform="matrix(-1.836970e-16 1 -1 -1.836970e-16 284.3323 -33.5952)" class="st0" width="6.8" height="23.2"/>
</g>
<g>
	<rect x="189.9" y="113.8" class="st0" width="6.8" height="23.2"/>
	
		<rect x="189.9" y="113.8" transform="matrix(-1.836970e-16 1 -1 -1.836970e-16 318.6436 -67.9065)" class="st0" width="6.8" height="23.2"/>
</g>
<g>
	<rect x="224.2" y="113.8" class="st0" width="6.8" height="23.2"/>
	
		<rect x="224.2" y="113.8" transform="matrix(-1.836970e-16 1 -1 -1.836970e-16 352.955 -102.2179)" class="st0" width="6.8" height="23.2"/>
</g>
<g>
	<rect x="258.5" y="113.8" class="st0" width="6.8" height="23.2"/>
	
		<rect x="258.5" y="113.8" transform="matrix(-1.836970e-16 1 -1 -1.836970e-16 387.2663 -136.5292)" class="st0" width="6.8" height="23.2"/>
</g>
<g>
	<rect x="292.8" y="113.8" class="st0" width="6.8" height="23.2"/>
	
		<rect x="292.8" y="113.8" transform="matrix(-1.836970e-16 1 -1 -1.836970e-16 421.5776 -170.8405)" class="st0" width="6.8" height="23.2"/>
</g>
<g>
	<rect x="327.1" y="113.8" class="st0" width="6.8" height="23.2"/>
	
		<rect x="327.1" y="113.8" transform="matrix(-1.836970e-16 1 -1 -1.836970e-16 455.889 -205.1519)" class="st0" width="6.8" height="23.2"/>
</g>
<g>
	<rect x="361.4" y="113.8" class="st0" width="6.8" height="23.2"/>
	
		<rect x="361.4" y="113.8" transform="matrix(-1.836970e-16 1 -1 -1.836970e-16 490.2003 -239.4632)" class="st0" width="6.8" height="23.2"/>
</g>
<g>
	<rect x="52.6" y="153.1" class="st0" width="6.8" height="23.2"/>
	
		<rect x="52.6" y="153.1" transform="matrix(-1.836970e-16 1 -1 -1.836970e-16 220.7863 108.7269)" class="st0" width="6.8" height="23.2"/>
</g>
<g>
	<rect x="87" y="153.1" class="st0" width="6.8" height="23.2"/>
	
		<rect x="87" y="153.1" transform="matrix(-1.836970e-16 1 -1 -1.836970e-16 255.0976 74.4155)" class="st0" width="6.8" height="23.2"/>
</g>
<g>
	<rect x="121.3" y="153.1" class="st0" width="6.8" height="23.2"/>
	
		<rect x="121.3" y="153.1" transform="matrix(-1.836970e-16 1 -1 -1.836970e-16 289.409 40.1042)" class="st0" width="6.8" height="23.2"/>
</g>
<g>
	<rect x="155.6" y="153.1" class="st0" width="6.8" height="23.2"/>
	
		<rect x="155.6" y="153.1" transform="matrix(-1.836970e-16 1 -1 -1.836970e-16 323.7203 5.7928)" class="st0" width="6.8" height="23.2"/>
</g>
<g>
	<rect x="189.9" y="153.1" class="st0" width="6.8" height="23.2"/>
	
		<rect x="189.9" y="153.1" transform="matrix(-1.836970e-16 1 -1 -1.836970e-16 358.0316 -28.5185)" class="st0" width="6.8" height="23.2"/>
</g>
<g>
	<rect x="224.2" y="153.1" class="st0" width="6.8" height="23.2"/>
	
		<rect x="224.2" y="153.1" transform="matrix(-1.836970e-16 1 -1 -1.836970e-16 392.343 -62.8298)" class="st0" width="6.8" height="23.2"/>
</g>
<g>
	<rect x="258.5" y="153.1" class="st0" width="6.8" height="23.2"/>
	
		<rect x="258.5" y="153.1" transform="matrix(-1.836970e-16 1 -1 -1.836970e-16 426.6543 -97.1412)" class="st0" width="6.8" height="23.2"/>
</g>
<g>
	<rect x="292.8" y="153.1" class="st0" width="6.8" height="23.2"/>
	
		<rect x="292.8" y="153.1" transform="matrix(-1.836970e-16 1 -1 -1.836970e-16 460.9657 -131.4525)" class="st0" width="6.8" height="23.2"/>
</g>
<g>
	<rect x="327.1" y="153.1" class="st0" width="6.8" height="23.2"/>
	
		<rect x="327.1" y="153.1" transform="matrix(-1.836970e-16 1 -1 -1.836970e-16 495.277 -165.7638)" class="st0" width="6.8" height="23.2"/>
</g>
<g>
	<rect x="361.4" y="153.1" class="st0" width="6.8" height="23.2"/>
	
		<rect x="361.4" y="153.1" transform="matrix(-1.836970e-16 1 -1 -1.836970e-16 529.5883 -200.0752)" class="st0" width="6.8" height="23.2"/>
</g>
<g>
	<rect x="52.6" y="192.5" class="st0" width="6.8" height="23.2"/>
	
		<rect x="52.6" y="192.5" transform="matrix(-1.836970e-16 1 -1 -1.836970e-16 260.1743 148.1149)" class="st0" width="6.8" height="23.2"/>
</g>
<g>
	<rect x="87" y="192.5" class="st0" width="6.8" height="23.2"/>
	
		<rect x="87" y="192.5" transform="matrix(-1.836970e-16 1 -1 -1.836970e-16 294.4857 113.8036)" class="st0" width="6.8" height="23.2"/>
</g>
<g>
	<rect x="121.3" y="192.5" class="st0" width="6.8" height="23.2"/>
	
		<rect x="121.3" y="192.5" transform="matrix(-1.836970e-16 1 -1 -1.836970e-16 328.797 79.4922)" class="st0" width="6.8" height="23.2"/>
</g>
<g>
	<rect x="155.6" y="192.5" class="st0" width="6.8" height="23.2"/>
	
		<rect x="155.6" y="192.5" transform="matrix(-1.836970e-16 1 -1 -1.836970e-16 363.1083 45.1809)" class="st0" width="6.8" height="23.2"/>
</g>
<g>
	<rect x="189.9" y="192.5" class="st0" width="6.8" height="23.2"/>
	
		<rect x="189.9" y="192.5" transform="matrix(-1.836970e-16 1 -1 -1.836970e-16 397.4197 10.8695)" class="st0" width="6.8" height="23.2"/>
</g>
<g>
	<rect x="224.2" y="192.5" class="st0" width="6.8" height="23.2"/>
	
		<rect x="224.2" y="192.5" transform="matrix(-1.836970e-16 1 -1 -1.836970e-16 431.731 -23.4418)" class="st0" width="6.8" height="23.2"/>
</g>
<g>
	<rect x="258.5" y="192.5" class="st0" width="6.8" height="23.2"/>
	
		<rect x="258.5" y="192.5" transform="matrix(-1.836970e-16 1 -1 -1.836970e-16 466.0424 -57.7531)" class="st0" width="6.8" height="23.2"/>
</g>
<g>
	<rect x="292.8" y="192.5" class="st0" width="6.8" height="23.2"/>
	
		<rect x="292.8" y="192.5" transform="matrix(-1.836970e-16 1 -1 -1.836970e-16 500.3537 -92.0645)" class="st0" width="6.8" height="23.2"/>
</g>
<g>
	<rect x="327.1" y="192.5" class="st0" width="6.8" height="23.2"/>
	
		<rect x="327.1" y="192.5" transform="matrix(-1.836970e-16 1 -1 -1.836970e-16 534.665 -126.3758)" class="st0" width="6.8" height="23.2"/>
</g>
<g>
	<rect x="361.4" y="192.5" class="st0" width="6.8" height="23.2"/>
	
		<rect x="361.4" y="192.5" transform="matrix(-1.836970e-16 1 -1 -1.836970e-16 568.9764 -160.6871)" class="st0" width="6.8" height="23.2"/>
</g>
<g>
	<rect x="52.6" y="231.9" class="st0" width="6.8" height="23.2"/>
	
		<rect x="52.6" y="231.9" transform="matrix(-1.836970e-16 1 -1 -1.836970e-16 299.5623 187.5029)" class="st0" width="6.8" height="23.2"/>
</g>
<g>
	<rect x="87" y="231.9" class="st0" width="6.8" height="23.2"/>
	
		<rect x="87" y="231.9" transform="matrix(-1.836970e-16 1 -1 -1.836970e-16 333.8737 153.1916)" class="st0" width="6.8" height="23.2"/>
</g>
<g>
	<rect x="121.3" y="231.9" class="st0" width="6.8" height="23.2"/>
	
		<rect x="121.3" y="231.9" transform="matrix(-1.836970e-16 1 -1 -1.836970e-16 368.185 118.8802)" class="st0" width="6.8" height="23.2"/>
</g>
<g>
	<rect x="155.6" y="231.9" class="st0" width="6.8" height="23.2"/>
	
		<rect x="155.6" y="231.9" transform="matrix(-1.836970e-16 1 -1 -1.836970e-16 402.4964 84.5689)" class="st0" width="6.8" height="23.2"/>
</g>
<g>
	<rect x="189.9" y="231.9" class="st0" width="6.8" height="23.2"/>
	
		<rect x="189.9" y="231.9" transform="matrix(-1.836970e-16 1 -1 -1.836970e-16 436.8077 50.2576)" class="st0" width="6.8" height="23.2"/>
</g>
<g>
	<rect x="224.2" y="231.9" class="st0" width="6.8" height="23.2"/>
	
		<rect x="224.2" y="231.9" transform="matrix(-1.836970e-16 1 -1 -1.836970e-16 471.119 15.9462)" class="st0" width="6.8" height="23.2"/>
</g>
<g>
	<rect x="258.5" y="231.9" class="st0" width="6.8" height="23.2"/>
	
		<rect x="258.5" y="231.9" transform="matrix(-1.836970e-16 1 -1 -1.836970e-16 505.4304 -18.3651)" class="st0" width="6.8" height="23.2"/>
</g>
<g>
	<rect x="292.8" y="231.9" class="st0" width="6.8" height="23.2"/>
	
		<rect x="292.8" y="231.9" transform="matrix(-1.836970e-16 1 -1 -1.836970e-16 539.7417 -52.6764)" class="st0" width="6.8" height="23.2"/>
</g>
<g>
	<rect x="327.1" y="231.9" class="st0" width="6.8" height="23.2"/>
	
		<rect x="327.1" y="231.9" transform="matrix(-1.836970e-16 1 -1 -1.836970e-16 574.053 -86.9878)" class="st0" width="6.8" height="23.2"/>
</g>
<g>
	<rect x="361.4" y="231.9" class="st0" width="6.8" height="23.2"/>
	
		<rect x="361.4" y="231.9" transform="matrix(-1.836970e-16 1 -1 -1.836970e-16 608.3644 -121.2991)" class="st0" width="6.8" height="23.2"/>
</g>
<g>
	<rect x="52.6" y="271.3" class="st0" width="6.8" height="23.2"/>
	
		<rect x="52.6" y="271.3" transform="matrix(-1.836970e-16 1 -1 -1.836970e-16 338.9504 226.8909)" class="st0" width="6.8" height="23.2"/>
</g>
<g>
	<rect x="87" y="271.3" class="st0" width="6.8" height="23.2"/>
	
		<rect x="87" y="271.3" transform="matrix(-1.836970e-16 1 -1 -1.836970e-16 373.2617 192.5796)" class="st0" width="6.8" height="23.2"/>
</g>
<g>
	<rect x="121.3" y="271.3" class="st0" width="6.8" height="23.2"/>
	
		<rect x="121.3" y="271.3" transform="matrix(-1.836970e-16 1 -1 -1.836970e-16 407.5731 158.2683)" class="st0" width="6.8" height="23.2"/>
</g>
<g>
	<rect x="155.6" y="271.3" class="st0" width="6.8" height="23.2"/>
	
		<rect x="155.6" y="271.3" transform="matrix(-1.836970e-16 1 -1 -1.836970e-16 441.8844 123.9569)" class="st0" width="6.8" height="23.2"/>
</g>
<g>
	<rect x="189.9" y="271.3" class="st0" width="6.8" height="23.2"/>
	
		<rect x="189.9" y="271.3" transform="matrix(-1.836970e-16 1 -1 -1.836970e-16 476.1957 89.6456)" class="st0" width="6.8" height="23.2"/>
</g>
<g>
	<rect x="224.2" y="271.3" class="st0" width="6.8" height="23.2"/>
	
		<rect x="224.2" y="271.3" transform="matrix(-1.836970e-16 1 -1 -1.836970e-16 510.507 55.3343)" class="st0" width="6.8" height="23.2"/>
</g>
<g>
	<rect x="258.5" y="271.3" class="st0" width="6.8" height="23.2"/>
	
		<rect x="258.5" y="271.3" transform="matrix(-1.836970e-16 1 -1 -1.836970e-16 544.8184 21.0229)" class="st0" width="6.8" height="23.2"/>
</g>
<g>
	<rect x="292.8" y="271.3" class="st0" width="6.8" height="23.2"/>
	
		<rect x="292.8" y="271.3" transform="matrix(-1.836970e-16 1 -1 -1.836970e-16 579.1298 -13.2884)" class="st0" width="6.8" height="23.2"/>
</g>
<g>
	<rect x="327.1" y="271.3" class="st0" width="6.8" height="23.2"/>
	
		<rect x="327.1" y="271.3" transform="matrix(-1.836970e-16 1 -1 -1.836970e-16 613.4411 -47.5998)" class="st0" width="6.8" height="23.2"/>
</g>
<g>
	<rect x="361.4" y="271.3" class="st0" width="6.8" height="23.2"/>
	
		<rect x="361.4" y="271.3" transform="matrix(-1.836970e-16 1 -1 -1.836970e-16 647.7524 -81.9111)" class="st0" width="6.8" height="23.2"/>
</g>
<g>
	<rect x="52.6" y="310.7" class="st0" width="6.8" height="23.2"/>
	
		<rect x="52.6" y="310.7" transform="matrix(-1.836970e-16 1 -1 -1.836970e-16 378.3384 266.279)" class="st0" width="6.8" height="23.2"/>
</g>
<g>
	<rect x="87" y="310.7" class="st0" width="6.8" height="23.2"/>
	
		<rect x="87" y="310.7" transform="matrix(-1.836970e-16 1 -1 -1.836970e-16 412.6497 231.9676)" class="st0" width="6.8" height="23.2"/>
</g>
<g>
	<rect x="121.3" y="310.7" class="st0" width="6.8" height="23.2"/>
	
		<rect x="121.3" y="310.7" transform="matrix(-1.836970e-16 1 -1 -1.836970e-16 446.9611 197.6563)" class="st0" width="6.8" height="23.2"/>
</g>
<g>
	<rect x="155.6" y="310.7" class="st0" width="6.8" height="23.2"/>
	
		<rect x="155.6" y="310.7" transform="matrix(-1.836970e-16 1 -1 -1.836970e-16 481.2724 163.345)" class="st0" width="6.8" height="23.2"/>
</g>
<g>
	<rect x="189.9" y="310.7" class="st0" width="6.8" height="23.2"/>
	
		<rect x="189.9" y="310.7" transform="matrix(-1.836970e-16 1 -1 -1.836970e-16 515.5837 129.0336)" class="st0" width="6.8" height="23.2"/>
</g>
<g>
	<rect x="224.2" y="310.7" class="st0" width="6.8" height="23.2"/>
	
		<rect x="224.2" y="310.7" transform="matrix(-1.836970e-16 1 -1 -1.836970e-16 549.8951 94.7223)" class="st0" width="6.8" height="23.2"/>
</g>
<g>
	<rect x="258.5" y="310.7" class="st0" width="6.8" height="23.2"/>
	
		<rect x="258.5" y="310.7" transform="matrix(-1.836970e-16 1 -1 -1.836970e-16 584.2064 60.4109)" class="st0" width="6.8" height="23.2"/>
</g>
<g>
	<rect x="292.8" y="310.7" class="st0" width="6.8" height="23.2"/>
	
		<rect x="292.8" y="310.7" transform="matrix(-1.836970e-16 1 -1 -1.836970e-16 618.5178 26.0996)" class="st0" width="6.8" height="23.2"/>
</g>
<g>
	<rect x="327.1" y="310.7" class="st0" width="6.8" height="23.2"/>
	
		<rect x="327.1" y="310.7" transform="matrix(-1.836970e-16 1 -1 -1.836970e-16 652.8291 -8.2117)" class="st0" width="6.8" height="23.2"/>
</g>
<g>
	<rect x="361.4" y="310.7" class="st0" width="6.8" height="23.2"/>
	
		<rect x="361.4" y="310.7" transform="matrix(-1.836970e-16 1 -1 -1.836970e-16 687.1404 -42.5231)" class="st0" width="6.8" height="23.2"/>
</g>
<g>
	<rect x="52.6" y="350.1" class="st0" width="6.8" height="23.2"/>
	
		<rect x="52.6" y="350.1" transform="matrix(-1.836970e-16 1 -1 -1.836970e-16 417.7264 305.667)" class="st0" width="6.8" height="23.2"/>
</g>
<g>
	<rect x="87" y="350.1" class="st0" width="6.8" height="23.2"/>
	
		<rect x="87" y="350.1" transform="matrix(-1.836970e-16 1 -1 -1.836970e-16 452.0378 271.3557)" class="st0" width="6.8" height="23.2"/>
</g>
<g>
	<rect x="121.3" y="350.1" class="st0" width="6.8" height="23.2"/>
	
		<rect x="121.3" y="350.1" transform="matrix(-1.836970e-16 1 -1 -1.836970e-16 486.3491 237.0443)" class="st0" width="6.8" height="23.2"/>
</g>
<g>
	<rect x="155.6" y="350.1" class="st0" width="6.8" height="23.2"/>
	
		<rect x="155.6" y="350.1" transform="matrix(-1.836970e-16 1 -1 -1.836970e-16 520.6605 202.733)" class="st0" width="6.8" height="23.2"/>
</g>
<g>
	<rect x="189.9" y="350.1" class="st0" width="6.8" height="23.2"/>
	
		<rect x="189.9" y="350.1" transform="matrix(-1.836970e-16 1 -1 -1.836970e-16 554.9718 168.4216)" class="st0" width="6.8" height="23.2"/>
</g>
<g>
	<rect x="224.2" y="350.1" class="st0" width="6.8" height="23.2"/>
	
		<rect x="224.2" y="350.1" transform="matrix(-1.836970e-16 1 -1 -1.836970e-16 589.2831 134.1103)" class="st0" width="6.8" height="23.2"/>
</g>
<g>
	<rect x="258.5" y="350.1" class="st0" width="6.8" height="23.2"/>
	
		<rect x="258.5" y="350.1" transform="matrix(-1.836970e-16 1 -1 -1.836970e-16 623.5945 99.799)" class="st0" width="6.8" height="23.2"/>
</g>
<g>
	<rect x="292.8" y="350.1" class="st0" width="6.8" height="23.2"/>
	
		<rect x="292.8" y="350.1" transform="matrix(-1.836970e-16 1 -1 -1.836970e-16 657.9058 65.4876)" class="st0" width="6.8" height="23.2"/>
</g>
<g>
	<rect x="327.1" y="350.1" class="st0" width="6.8" height="23.2"/>
	
		<rect x="327.1" y="350.1" transform="matrix(-1.836970e-16 1 -1 -1.836970e-16 692.2172 31.1763)" class="st0" width="6.8" height="23.2"/>
</g>
<g>
	<rect x="361.4" y="350.1" class="st0" width="6.8" height="23.2"/>
	
		<rect x="361.4" y="350.1" transform="matrix(-1.836970e-16 1 -1 -1.836970e-16 726.5284 -3.135)" class="st0" width="6.8" height="23.2"/>
</g>
<g>
	<rect x="52.6" y="389.5" class="st0" width="6.8" height="23.2"/>
	
		<rect x="52.6" y="389.5" transform="matrix(-1.836970e-16 1 -1 -1.836970e-16 457.1145 345.055)" class="st0" width="6.8" height="23.2"/>
</g>
<g>
	<rect x="87" y="389.5" class="st0" width="6.8" height="23.2"/>
	
		<rect x="87" y="389.5" transform="matrix(-1.836970e-16 1 -1 -1.836970e-16 491.4258 310.7437)" class="st0" width="6.8" height="23.2"/>
</g>
<g>
	<rect x="121.3" y="389.5" class="st0" width="6.8" height="23.2"/>
	
		<rect x="121.3" y="389.5" transform="matrix(-1.836970e-16 1 -1 -1.836970e-16 525.7371 276.4323)" class="st0" width="6.8" height="23.2"/>
</g>
<g>
	<rect x="155.6" y="389.5" class="st0" width="6.8" height="23.2"/>
	
		<rect x="155.6" y="389.5" transform="matrix(-1.836970e-16 1 -1 -1.836970e-16 560.0485 242.121)" class="st0" width="6.8" height="23.2"/>
</g>
<g>
	<rect x="189.9" y="389.5" class="st0" width="6.8" height="23.2"/>
	
		<rect x="189.9" y="389.5" transform="matrix(-1.836970e-16 1 -1 -1.836970e-16 594.3598 207.8097)" class="st0" width="6.8" height="23.2"/>
</g>
<g>
	<rect x="224.2" y="389.5" class="st0" width="6.8" height="23.2"/>
	
		<rect x="224.2" y="389.5" transform="matrix(-1.836970e-16 1 -1 -1.836970e-16 628.6711 173.4983)" class="st0" width="6.8" height="23.2"/>
</g>
<g>
	<rect x="258.5" y="389.5" class="st0" width="6.8" height="23.2"/>
	
		<rect x="258.5" y="389.5" transform="matrix(-1.836970e-16 1 -1 -1.836970e-16 662.9825 139.187)" class="st0" width="6.8" height="23.2"/>
</g>
<g>
	<rect x="292.8" y="389.5" class="st0" width="6.8" height="23.2"/>
	
		<rect x="292.8" y="389.5" transform="matrix(-1.836970e-16 1 -1 -1.836970e-16 697.2938 104.8757)" class="st0" width="6.8" height="23.2"/>
</g>
<g>
	<rect x="327.1" y="389.5" class="st0" width="6.8" height="23.2"/>
	
		<rect x="327.1" y="389.5" transform="matrix(-1.836970e-16 1 -1 -1.836970e-16 731.6052 70.5643)" class="st0" width="6.8" height="23.2"/>
</g>
<g>
	<rect x="361.4" y="389.5" class="st0" width="6.8" height="23.2"/>
	
		<rect x="361.4" y="389.5" transform="matrix(-1.836970e-16 1 -1 -1.836970e-16 765.9165 36.253)" class="st0" width="6.8" height="23.2"/>
</g>
<g>
	<rect x="52.6" y="428.9" class="st0" width="6.8" height="23.2"/>
	
		<rect x="52.6" y="428.9" transform="matrix(-1.836970e-16 1 -1 -1.836970e-16 496.5025 384.4431)" class="st0" width="6.8" height="23.2"/>
</g>
<g>
	<rect x="87" y="428.9" class="st0" width="6.8" height="23.2"/>
	
		<rect x="87" y="428.9" transform="matrix(-1.836970e-16 1 -1 -1.836970e-16 530.8138 350.1317)" class="st0" width="6.8" height="23.2"/>
</g>
<g>
	<rect x="121.3" y="428.9" class="st0" width="6.8" height="23.2"/>
	
		<rect x="121.3" y="428.9" transform="matrix(-1.836970e-16 1 -1 -1.836970e-16 565.1252 315.8204)" class="st0" width="6.8" height="23.2"/>
</g>
<g>
	<rect x="155.6" y="428.9" class="st0" width="6.8" height="23.2"/>
	
		<rect x="155.6" y="428.9" transform="matrix(-1.836970e-16 1 -1 -1.836970e-16 599.4365 281.509)" class="st0" width="6.8" height="23.2"/>
</g>
<g>
	<rect x="189.9" y="428.9" class="st0" width="6.8" height="23.2"/>
	
		<rect x="189.9" y="428.9" transform="matrix(-1.836970e-16 1 -1 -1.836970e-16 633.7479 247.1977)" class="st0" width="6.8" height="23.2"/>
</g>
<g>
	<rect x="224.2" y="428.9" class="st0" width="6.8" height="23.2"/>
	
		<rect x="224.2" y="428.9" transform="matrix(-1.836970e-16 1 -1 -1.836970e-16 668.0592 212.8864)" class="st0" width="6.8" height="23.2"/>
</g>
<g>
	<rect x="258.5" y="428.9" class="st0" width="6.8" height="23.2"/>
	
		<rect x="258.5" y="428.9" transform="matrix(-1.836970e-16 1 -1 -1.836970e-16 702.3705 178.575)" class="st0" width="6.8" height="23.2"/>
</g>
<g>
	<rect x="292.8" y="428.9" class="st0" width="6.8" height="23.2"/>
	
		<rect x="292.8" y="428.9" transform="matrix(-1.836970e-16 1 -1 -1.836970e-16 736.6819 144.2637)" class="st0" width="6.8" height="23.2"/>
</g>
<g>
	<rect x="327.1" y="428.9" class="st0" width="6.8" height="23.2"/>
	
		<rect x="327.1" y="428.9" transform="matrix(-1.836970e-16 1 -1 -1.836970e-16 770.9932 109.9524)" class="st0" width="6.8" height="23.2"/>
</g>
<g>
	<rect x="361.4" y="428.9" class="st0" width="6.8" height="23.2"/>
	
		<rect x="361.4" y="428.9" transform="matrix(-1.836970e-16 1 -1 -1.836970e-16 805.3045 75.641)" class="st0" width="6.8" height="23.2"/>
</g>
</svg>
