<?xml version="1.0" encoding="utf-8"?>
<!-- Generator: Adobe Illustrator 20.1.0, SVG Export Plug-In . SVG Version: 6.00 Build 0)  -->
<svg version="1.1" id="Calque_1" xmlns="http://www.w3.org/2000/svg" xmlns:xlink="http://www.w3.org/1999/xlink" x="0px" y="0px"
	 viewBox="0 0 142.7 152.7" style="enable-background:new 0 0 142.7 152.7;" xml:space="preserve">
<style type="text/css">
	.st0{fill:#F2F2F2;}
	.st1{fill:#B3B3B3;}
	.st2{fill:#EADC78;}
	.st3{fill:#C7B299;}
	.st4{fill:#3F3F3F;}
	.st5{fill:#D14E4E;}
</style>
<g>
	<path class="st0" d="M45.5,104.5c-0.3,0-0.6-0.1-0.9-0.3c-0.5-0.4-0.7-1-0.6-1.6l5.5-21.9H12c-0.8,0-1.5-0.7-1.5-1.5V7.4
		c0-0.8,0.7-1.5,1.5-1.5h119.1c0.8,0,1.5,0.7,1.5,1.5v71.8c0,0.8-0.7,1.5-1.5,1.5H83.7l-37.4,23.6C46.1,104.4,45.8,104.5,45.5,104.5
		z"/>
	<path class="st1" d="M131.1,7.4v35.9v35.9H91.5h-0.4h-7.8L45.5,103l6-23.8H12V7.4h39.5H52h39.1h0.4H131.1 M131.1,4.4H91.5h-0.4H52
		h-0.5H12c-1.7,0-3,1.3-3,3v71.8c0,1.7,1.3,3,3,3h35.6l-5.1,20.1c-0.3,1.2,0.2,2.4,1.1,3.2c0.5,0.4,1.1,0.6,1.8,0.6
		c0.6,0,1.1-0.2,1.6-0.5l37-23.3h7h0.4h39.6c1.7,0,3-1.3,3-3V43.3V7.4C134.1,5.7,132.8,4.4,131.1,4.4L131.1,4.4z"/>
</g>
<g>
	<rect x="12" y="7.4" class="st2" width="39.5" height="71.8"/>
	<polygon class="st2" points="91.5,7.4 91.1,7.4 91.1,79.2 91.5,79.2 131.1,79.2 131.1,43.3 131.1,7.4 	"/>
	<polygon class="st2" points="52,7.4 51.5,7.4 51.5,79.2 45.5,103 83.2,79.2 91.1,79.2 91.1,7.4 	"/>
</g>
<polygon class="st3" points="130,78.7 12,78.7 12,7.4 130,7.4 104.5,43 "/>
<polygon class="st4" points="131.1,32.1 12,32.1 12,7.4 131.1,7.4 "/>
<polyline class="st5" points="131.1,55.9 12,55.9 12,32.1 131.1,32.1 131.1,55.9 "/>
<polygon class="st2" points="131.1,55.9 131.1,79.8 12,79.8 12,55.9 "/>
</svg>
