<?xml version="1.0" encoding="utf-8"?>
<!-- Generator: Adobe Illustrator 20.1.0, SVG Export Plug-In . SVG Version: 6.00 Build 0)  -->
<svg version="1.1" id="Calque_1" xmlns="http://www.w3.org/2000/svg" xmlns:xlink="http://www.w3.org/1999/xlink" x="0px" y="0px"
	 viewBox="0 0 709.3 596.3" style="enable-background:new 0 0 709.3 596.3;" xml:space="preserve">
<style type="text/css">
	st0{fill:#4D4D4D;}
	.st1{fill:#808080;}
	.st2{fill:#999999;}
	.st3{fill:#666666;}
	.st4{fill:#B3B3B3;}
	.st5{fill:#8DC6A4;}
	.st6{fill:#E6E6E6;}
	.st7{fill:#CCCCCC;}
	.st8{fill:#06602C;}
	.st9{font-family:'BatonTurboTrial-Bold';}
	.st10{font-size:21px;}
</style>
<polygon id="_x3C_Tracé_x3E_" class="st0" points="21.8,274.3 24.9,269.2 25.8,273.9 27.4,276.2 31,275.4 36.6,271.5 43.4,264.2 
	48.5,267.9 52,267.6 54.6,261.6 60.7,261.3 64.8,251.6 68.7,248.3 69.5,244.8 73.7,244.4 76.2,246.5 79.1,244.6 81.5,243.5 
	83.6,244.3 88.5,243.9 90.9,242.4 90.9,240.4 88,238.2 91.6,233.7 94.5,231.8 94.9,226.1 103.7,226.1 106.3,228.9 126,229.6 
	135.4,222.9 140.7,221.8 144,218.4 150.1,219.1 155.8,221.8 167.6,222 170.4,223.5 174.7,221.5 181.5,217.8 178.9,215.4 
	180.7,212.5 187,209.4 189.7,213.3 189.1,216.8 185.6,218.6 184.1,223.9 177.8,227 168.8,229.2 165,237.1 158.3,237.6 153,241.1 
	153.7,244.3 146.5,248.4 141.1,252.2 135.7,253.3 136.1,256.2 138.5,261.2 143.7,263.1 145.6,267.5 146,273.4 149.7,272.1 
	152.3,272.1 158.3,265 160.5,266.3 166.9,262.5 167.3,267 171.6,267.8 171.9,270.7 166.5,277.4 162,274.7 155.8,280.2 157.8,284.2 
	153.1,288 149.3,287.9 144.5,285.1 142.3,288.2 146.9,296.4 150.7,295.9 153.4,294.4 157.9,295 159.1,303 164.5,302.1 166.8,298.4 
	164.6,290.4 173.8,287.4 179.3,279.1 178.1,273.8 184.8,273.8 186.7,271.3 189.9,271.3 193.3,274.6 194,277.3 199.6,275.5 
	203.3,275.2 207.1,277.4 208,273.1 211.4,270.4 215.3,268.9 215.2,263.6 208.2,256 207,249.8 202.1,249 196.2,242.8 195.6,237.6 
	192.4,231.4 209.9,230 217.4,226.7 227.8,234.3 231.9,239.9 235.4,239.6 236.6,235.4 241.3,239.9 243.2,236.1 246.3,236.3 
	246.6,237.7 251.7,237.5 252,244.1 254.1,247.4 254,251.9 257.9,257.9 258.3,262.3 262.6,266.5 262.6,276.9 266,280.2 265.4,284.1 
	260.1,287.3 260.1,289 262.3,290.3 262.5,295.6 263.4,296.4 263.6,304.2 261.6,307 261.7,312.6 268.7,321.7 268.5,325.6 
	269.7,326.7 271.8,326.8 272.3,325.7 274.3,325.9 275.7,327.9 281.3,328.5 281,330.3 280,331.8 281,334.3 280.9,336.4 279.1,340.8 
	277.1,341.1 275.9,346.7 274,348.2 273.6,351.1 272.2,352.2 266.3,352.6 260.9,355.9 260.9,358 264,361.7 264,364.2 261,368.9 
	258.4,369 259.1,375.1 260.7,376.5 261,382.6 279.6,396.3 282.5,401.8 285.8,404.7 287.1,406.9 290.2,406.9 295,402.7 313.2,403 
	316,407.2 322,408.9 325.6,413.7 329.1,413.6 337.5,409 341.8,409.4 346.5,412.6 348,412.6 348.5,409.7 352.7,410.1 357.4,414.7 
	360.8,414.4 371.3,405.3 378.3,405.1 380.3,403.5 383.9,405 385.8,407.3 385.8,410.7 387.9,411.3 391,407.5 394.7,407.4 399,410.7 
	397.4,414.3 397.6,421.9 398.9,424.1 398.8,428.5 400.8,429.9 400.2,437.8 397,438.9 388.5,436 386.5,436.1 387.1,443.1 
	389.5,445.5 389.3,449.5 379.8,458.1 379.9,465 377,468.8 377.2,476.3 372.9,481.6 368.5,481.7 360.7,489.3 352.5,493 342.8,493.2 
	338.6,494.1 338.4,495.6 334.8,495.6 333,491.3 331.6,491.4 330.9,492.4 327.1,492.4 315.8,485 311.6,483.6 304,483.2 299.1,480.9 
	295,481 283.4,489.5 283.6,492.6 285.5,494.4 285.3,496.5 280.2,499.6 275.9,499.5 271.5,506.2 261.4,510 254.6,509.8 248.7,515.1 
	244.4,516.1 234.4,526.4 227.1,528.7 225.3,531.5 224.3,532.6 221.3,532.3 217.4,528.1 204.2,522.1 198.6,525.8 198.3,531.2 
	195.9,533.9 192.6,530.9 187.4,532.7 182.2,532.6 179.9,536 181.9,538.5 185.9,539.9 185.2,542.7 182,546 178.2,545.9 177.4,544.7 
	174.8,544.8 174,547.8 169.8,547.3 169.6,543 167.2,542.8 164.2,545.9 161.2,542.4 150.1,545.7 140,553.2 130.2,556.1 128.1,554.9 
	128.9,545.1 124.7,548.8 117.6,551.2 116.2,553.5 115.9,559.8 112,562.5 107.3,562.3 107.5,549.2 104,548.9 103.6,545.5 
	100.7,543.6 100.7,540.5 103.5,536.4 103.5,529.9 100.1,525.2 101.6,522.6 105.2,523.3 108.9,521.3 109.1,512.5 107.3,508.5 
	109.2,504.8 113.4,500.6 113.3,491.6 110.8,483.5 116.1,481.2 122.2,472.9 125.8,475.7 130,470.4 129.9,461.5 127.8,459.5 
	127.8,456.3 132.6,455 133.4,453 130.7,449.5 135.7,449.6 139.5,453.8 141.9,450 143.7,448.8 142.3,445.4 142.4,440.9 144.4,436.9 
	136.9,433.3 136.9,429 134.6,427.4 126.9,427.4 124.3,420.7 126,417.7 126.5,411.8 123.4,408.1 127,402.6 127,397.5 130.8,392 
	131,389.1 132.7,388.2 132.6,385.5 126.8,381.9 130.9,378.1 133.8,381.7 136.3,381.4 139.1,378.1 138.9,369.2 136,366.9 
	128.6,366.4 118.4,366.1 117.3,364.5 111.9,364.4 103.3,363.2 103.8,356.1 106.6,354.9 108.5,355.5 110.1,354.1 109.9,349.9 
	104,351.2 103.2,348.1 104.3,339.4 108.7,335.9 108.8,332.1 106,325.5 99.9,328.5 89.3,334.3 80.4,336.4 68.6,337.3 63.1,335.7 
	60.1,326.6 62.4,324.6 62.7,317.4 67.4,314.2 74.4,310.5 74.7,306.4 72.8,303.9 73.3,296.5 66.2,291.8 60.1,291.8 60,288.3 
	63,285.5 60.9,284.7 49.7,289 40.1,290.1 28.6,296.1 23.8,299.3 22.9,293.4 28.1,285.1 27.1,281.1 "/>
<polygon class="st1" points="254.2,246.9 263.4,245.9 270,243.4 275.2,246.3 280.2,244.3 282.9,241.6 282.4,237.5 280.1,233.7 
	284.1,231.6 286.7,233 291,230.9 293.3,232.7 293.8,235.4 295.8,237.8 296.4,242.4 298.8,244.1 304.8,244.4 306.2,242.9 306.3,240 
	309.4,240 312.4,236.8 314.6,236.8 317.9,240.6 319.9,244.4 324.8,243.9 333.4,240.4 335.7,244.4 334,246.1 330.5,246.1 
	334.1,250.8 339.9,250.8 341.6,248.5 341.4,242.6 345.4,237.9 345.5,234.4 348.9,234.2 352.6,227.8 353.9,227.7 356.4,230.5 
	364,233.4 363.3,239.7 367.7,245.2 367.7,251.5 374,269.7 378.7,278 382,281.2 388.6,281.3 389.3,284 391.6,285.6 394.5,285.4 
	397.6,283.5 399.9,283.3 400,289.7 389.7,296.5 388.5,301.6 384.4,304.4 384.5,306.7 385.9,308.3 395.3,307.4 399.7,309.2 
	408,317.8 410.4,320.1 414.3,320.9 413.7,326.2 410.4,329.5 402.4,332.1 402.9,325.9 394.8,323.1 392.6,323.1 392.8,330.1 
	383.5,329.9 383.1,322.3 379.8,322.1 372,332.9 367.4,329 362.1,331.3 359.2,331.3 355.8,329.3 352.1,333.4 349.8,333.3 
	346.8,331.5 344.5,333.7 345.7,337.3 346.6,339.6 344.5,340.9 338.5,341 337,338.9 335,339.4 328.9,344.7 329.8,347.1 331.9,349.6 
	327.6,353.1 322.4,358.1 318.7,366.2 316.8,365.7 316.8,361 314.2,360.7 308.5,366 308.7,376 302.4,383.8 302.6,387.4 307,394.2 
	306.6,398.8 305.2,403 295,402.7 290.2,406.9 287.2,406.9 285.8,404.7 282.5,401.7 279.6,396.2 261,382.6 260.7,376.5 259.1,375.1 
	258.5,369 261.1,368.9 264.1,364.2 264,361.7 260.9,358 260.9,356 266.3,352.6 272.1,352.2 273.5,351.1 274,348.2 275.9,346.7 
	277,341.1 279.1,340.8 280.9,336.4 281,334.3 280,331.8 281,330.3 281.3,328.5 275.7,327.9 274.3,325.9 272.3,325.7 271.8,326.8 
	269.7,326.7 268.5,325.6 268.7,321.7 261.7,312.6 261.7,307 263.6,304.2 263.5,296.4 262.6,295.6 262.3,290.3 260.1,289 260.1,287 
	265.6,284.1 266,280.2 262.6,276.9 262.6,266.7 258.3,262.3 257.7,257.9 253.9,251.9 "/>
<polygon class="st2" points="187.1,209.8 182.3,207.8 181.8,202.4 179,201.3 178.9,198.4 174.8,198.1 171.6,200.7 166.5,200.7 
	159.1,196.3 159.9,189.6 161.5,188 166.5,188.2 168.6,192.9 171.3,194.3 175.3,194.1 178.9,192.1 181.2,189.2 180.7,184.1 
	192.1,183.9 189.7,180.7 190,175.2 192.1,175.7 193.7,178.5 199,177.9 202.5,170.9 202.9,165.9 199.2,164.2 198.6,157.9 
	202.2,158.4 203.7,160.1 210,159.4 210,156.2 213.5,156.1 213.9,159.1 223.7,163 217.2,173.6 217,179.9 214.2,185.3 205.2,186 
	207.4,200.5 227.5,199.8 229.9,205.2 240,211.5 242.9,209.8 243.3,205.5 246,202.3 250.7,202.3 253.1,198.6 258.8,195.9 262,195.1 
	261,192.2 265.9,185.6 271.3,190.2 278.7,185 282,182.6 281.8,180.1 280.1,174.5 282.3,170.4 283.3,167.7 285.5,167.4 287.9,174.5 
	289,178.7 285.2,180.9 285.8,182.4 288.9,184.2 292.3,184.2 293.8,186.4 294.1,190.9 298.7,191.4 298.7,198.8 293,205.8 293,211 
	280.3,217.9 279.6,213.3 268.5,212.8 268.8,217.3 265.6,219.9 260.7,220.4 258.2,225.3 255.2,231.5 249.3,237.6 246.6,237.6 
	246.3,236.2 243.2,236 241.3,239.8 236.6,235.4 235.4,239.6 231.9,239.9 227.8,234.3 217.4,226.7 209.9,230 192.4,231.4 
	195.6,237.6 196.2,242.8 202.1,249 207,249.8 208.2,256 215.2,263.6 215.3,268.9 211.4,270.4 208,273.1 207.1,277.4 203.3,275.2 
	199.6,275.5 194,277.3 193.3,274.6 189.9,271.3 186.8,271.3 184.8,273.8 177.7,273.8 179.3,279.1 173.8,287.5 164.6,290.5 
	166.8,298.5 164.5,302.1 159.1,303 157.9,295 153.4,294.4 150.7,295.9 146.9,296.4 142.3,288.2 144.5,285.1 149.3,287.9 153.1,288 
	157.8,284.2 155.8,280.2 162,274.7 166.5,277.4 171.9,270.7 171.6,267.8 167.3,267 166.9,262.6 160.5,266.4 158.3,265 152.3,272.1 
	149.3,272.1 146,273.4 145.6,267.5 143.7,263 138.5,261.2 136.1,256.2 135.7,253.3 141.1,252.2 153.7,244.3 153,241.1 158.3,237.6 
	165,237.1 168.8,229.2 177.8,227 184.1,223.9 185.6,218.6 189.1,216.8 189.7,213.3 "/>
<polygon class="st1" points="158.9,195.9 152.3,195.6 152.6,191 148.1,189.3 144.1,184.9 139,183.1 137,180.4 132.1,177.3 
	131.9,174.8 138.3,177.4 145.8,177.7 152.3,175.3 157.7,168.1 161,167 162.7,164 159.4,160.5 154,159.4 158.3,154.5 163.5,157.7 
	167.2,160.5 171.3,160.1 175,154.2 175.8,148.5 174.1,146.4 176.8,146.8 178,148.1 179.6,147.9 179.6,143 177,142.9 176,143.6 
	173.4,143 173.5,139.8 179.1,137.6 187,130.1 187.6,133.8 187.7,138 193.1,138.1 193.3,147.7 195.7,148.5 198.9,142.8 200,135.2 
	202.7,131.9 210.4,136.7 214.8,142 220.4,142.5 223.8,139.9 228,142.7 233.5,144.3 240.4,145.7 243.1,151.3 242.1,156.5 
	247.9,153.9 252.5,147 253.4,143 258.5,142.9 260.2,148.4 262.3,146.3 263.7,150.3 269.3,155.7 269.6,159.9 277.1,160.3 
	279.1,158.1 280.1,161.6 278.1,165.5 283.3,167.7 280.1,174.5 281.8,180.1 282,182.6 271.3,190.2 265.9,185.6 261,192.2 262,195.1 
	258.8,195.9 253.1,198.6 250.7,202.3 245.6,202.3 243.3,205.5 242.9,209.8 240,211.5 229.9,205.2 227.5,199.8 207.4,200.5 
	205.2,186 214.2,185.3 217.1,179.9 217.2,173.6 223.8,163 214,159.1 213.5,156.1 210,156.2 210,159.3 203.7,160.1 202,158.4 
	198.6,157.9 199.1,164.2 202.8,165.9 202.5,170.9 199,177.9 193.7,178.5 192.1,175.7 190,175.2 189.7,180.7 192.1,183.9 
	180.7,184.1 181.2,189.2 178.9,192.1 175.3,194.1 171.3,194.2 168.6,192.9 166.5,188.2 161.5,188 159.9,189.5 "/>
<polygon class="st3" points="186.9,130.3 189.7,127.3 193,127.9 195.8,120.6 198.6,124.9 201.8,127.1 206.5,123.4 211.1,123.4 
	217.9,119.4 216.1,123.9 218,126.3 217.4,131 213.2,131.4 210.4,136.7 202.7,131.9 200,135.2 198.9,142.8 195.7,148.5 193.3,147.7 
	193.1,138.1 187.7,138 187.6,133.8 "/>
<polygon class="st3" points="223.9,140.2 233.5,138.9 242.8,134.1 247.6,129.7 248.4,124.7 251.4,123.2 254.6,124.2 256.8,124.2 
	260.7,122.6 265.3,122.8 270.9,127.8 271,135.4 273.9,138.4 279.4,138.1 282.5,133.8 284.8,134.1 286.6,135.2 295.6,135 
	296.7,136.5 299.5,136.5 305.9,133.9 307.5,132 311,132.2 312.5,134.1 316.5,130.9 316.8,125.9 319.3,124.2 323.6,124.5 
	326.6,120.4 332.3,120.2 337.6,115.2 341.2,111.1 344,111.1 344.8,112.7 345,116.8 347,116.8 352.1,114.4 354.1,114.4 355.2,115.6 
	361.9,115.8 362.7,123.2 366,125.2 370.1,129.2 378.5,129.4 381.6,130.6 383.7,130.2 386,127 389.1,127.2 392,130 385.5,144.7 
	382.6,144.8 382.3,148.4 377.3,152.4 377.8,159.1 381.7,162.6 379.7,166 383.2,168.9 382.9,171.9 381.4,175.2 385.4,180.6 
	384.3,185.4 379.3,187.7 379.4,189.8 384.7,191.8 386,195.9 390.1,200 388.8,208.6 391.6,214.4 395,214.2 400.1,212.6 400.2,214.8 
	395.5,219.9 394.5,225.3 389.6,227.6 385.3,227.8 387.7,232.7 387.6,238.9 389.8,242.7 386,249.8 387.4,256 386.8,266.7 
	391.3,270.5 391,275.1 388.6,281.3 382,281.2 378.7,278 374,269.7 367.7,251.5 367.7,245.5 363.3,239.7 364,233.4 356.4,230.5 
	353.8,227.7 352.6,227.8 348.9,234.2 345.5,234.4 345.4,238 341.4,242.7 341.6,248.5 339.9,250.8 333.8,250.8 330.5,246.1 334,246 
	335.7,244.4 333.4,240.4 324.3,243.9 319.9,244.4 317.9,240.6 314.6,236.8 312.5,236.8 309.4,240 306.3,240 306.2,242.9 
	304.8,244.4 298.8,244.1 296.4,242.4 295.8,237.8 293.8,235.4 293.3,232.7 291,230.9 286.7,233 284.1,231.6 280.1,233.7 
	282.4,237.5 282.9,241.6 280.2,244.3 275.2,246.3 270,243.4 263.4,245.9 254.1,247.4 252,244.1 251.7,237.5 249.3,237.8 
	255.3,231.6 260.7,220.4 265.6,219.9 268.8,217.3 268.6,212.8 279.8,213.3 280.3,217.9 293,211 293,205.9 298.7,198.8 298.7,191.7 
	294.1,190.9 293.7,186.4 292.3,184.2 289.2,184.2 285.8,182.4 285.2,180.9 289,178.7 285.5,167.4 283.3,167.7 278.1,165.5 
	280.1,161.6 279.1,158.1 277.1,160.3 269.6,159.9 269.3,155.7 263.7,150.3 262.3,146.3 260.2,148.4 258.5,142.9 253.4,143 
	252.5,147 247.9,153.9 242.1,156.5 243.1,151.3 240.4,145.7 233.5,144.3 228,142.7 "/>
<polygon class="st2" points="389.1,242.8 391.9,250.8 397.7,250.8 406.1,258.2 410.9,258.2 420.7,252.8 428.7,251.8 434,258.1 
	439.3,260.3 440.9,270.5 448.4,270.5 450.9,273.8 456.5,273.8 456.5,276.9 455.1,280.4 454.9,284.5 445.1,297 438.2,295.6 
	430.5,300.9 425.1,300.9 425.8,296.6 422,296 416.8,297.9 409.7,294.8 404.8,289.9 400,289.7 399.9,283.3 397.6,283.5 394.5,285.4 
	391.6,285.6 389.3,284 388.6,281.3 391,275.1 391.3,270.5 386.8,266.7 387.4,256 386,249.7 "/>
<polygon class="st4" points="456.5,273.3 453.2,267.8 453.2,262.7 466.3,255.8 483.4,251 489.6,255.6 499.8,256.1 511.7,253.3 
	522.1,252.8 523.1,255.6 520.6,260.2 520.6,265.7 528.6,266.5 529.9,269.8 522.4,280.2 521.4,286.3 523,288.5 522.6,292.3 
	519.2,296 523.6,299.1 518.1,307.2 517.5,312.5 513,315.2 507.4,315.7 504.2,321 515.4,334.2 514.8,337.6 521.6,342.9 519.8,349.6 
	520.1,354.7 511.7,357.9 497.7,367.4 493.4,367.8 493.4,360.5 489.3,360.4 489.3,352.9 483,350.3 479.9,353.4 475.5,349.7 
	471.3,350.6 462.9,357.7 457.9,356.2 459.3,351.3 457,347.6 451.9,347.6 434.3,345.5 434.3,335.7 431.8,331.5 425,332.1 
	420.1,336.2 410.9,337.9 402.6,334.5 402.4,332.1 410.4,329.5 413.7,326.2 414.3,320.9 410.4,320.1 399.7,309.2 395.3,307.4 
	385.9,308.3 384.5,306.7 384.4,304.4 388.5,301.6 389.7,296.5 400,289.7 404.8,289.9 409.7,294.8 416.8,297.8 422,296 425.8,296.6 
	425.1,300.9 430.1,300.9 438.3,295.6 445.2,297 455,284.5 455.3,280.4 456.8,276.9 "/>
<polygon id="cantonnidwald" class="st5" points="346.5,338.5 353.9,335.3 364.1,335.3 364.1,343.8 361,351 363.2,354.3 368,355.8 
	372.9,353.6 372.3,365.7 369.7,372.8 371.2,381.1 371.1,388.4 368.6,391.1 373,397.7 380.3,403.5 384,405 386.1,407.3 386.1,410.7 
	388,411.3 391,407.5 394.8,407.4 392.4,401.8 387.9,401.5 383.1,398 383.1,394.5 379.1,391.6 379.1,381.3 377.5,377.4 382,371.7 
	382.1,378.3 384.5,378.3 389.2,375 391.7,377.5 393.9,381.6 398.5,381.3 403.1,379.3 403.1,372.2 406.1,370 406.1,368.1 
	401.6,364.5 408.8,356.9 411.7,358.5 416.8,356.6 422.7,353.4 424.3,348.6 425,340.6 428.6,336.2 428,331.9 425.1,332.1 
	420.2,336.2 410.9,337.9 402.6,334.5 402.4,332.1 402.9,325.5 394.8,322.3 392.6,322.3 392.8,329.7 383.5,329.7 383.1,322.2 
	379.8,322.1 372,332.9 367.4,328.5 362.1,330.3 359.2,330.3 355.8,328.8 352.1,333.2 349.8,333.2 346.8,331.5 344.5,333.4 "/>
<polygon class="st6" points="304.7,403.2 306.3,398.9 306.8,394.3 302.6,387.4 302.4,383.9 308.7,376 308.6,366 314.2,360.7 
	316.8,361 316.8,366.1 318.7,366.2 322.3,358.1 331.9,349.6 329.8,347.1 328.9,344.7 335,339.4 337,338.9 338.5,341 344.5,340.9 
	346.6,339.6 353.9,336.2 364.2,336.2 364.8,343.8 361.3,351 363.4,354.3 368,355.8 373,353.6 372.4,365.7 369.7,372.8 371.2,381.1 
	371.1,388.4 368.6,391.1 373,397.7 380.3,403.5 378.3,405.1 371.3,405.3 360.8,414.3 357.4,414.6 352.7,410 348.5,409.7 348,412.6 
	346,412.6 341.8,409.4 337.5,409.1 329.1,413.6 325.6,413.7 322,409 316,407.3 313.2,403 "/>
<polygon class="st6" points="399.1,410.7 397.5,414.3 397.6,421.9 398.9,424.1 398.8,428.5 400.8,429.9 400.2,437.8 397,438.9 
	388.5,436 386.5,436.1 387.1,443.1 389.5,445.5 389.3,449.5 391.1,450.1 391.7,457.4 391.5,463.2 388.5,472.4 392.4,484 
	396.3,490.2 401.8,490.9 405.2,493.9 408.9,490.7 413.4,490.7 415.4,484.7 415.4,477.9 420.1,472.7 427.7,473.8 432.2,477.5 
	435.7,477.5 437.7,475.9 441.7,475.6 441.7,478.8 443.3,480 447.8,480 450.8,476.5 454,475.6 453.7,462 449.9,460.4 447.7,456.3 
	448.5,449.4 453.2,447.5 453.4,443.3 451.5,441.1 451.5,436.4 455,436.4 456.5,433.2 461.6,433.2 471,426.7 468.9,423.1 
	474.5,418.4 477.8,424.1 480.3,424.1 485.2,419.8 485.2,412.6 487.7,412.6 487.7,408.7 487.7,401.1 493.5,401.1 501.1,392.6 
	501.4,387.4 499.6,382.8 503.9,381.4 508.2,376.5 511.7,376.5 520.2,370.6 517.5,362.7 511.7,357.9 497.7,367.4 493.4,368.1 
	493.4,360.5 489.3,360 489.3,352.9 483,350.3 480,353.4 475.5,349.7 471.3,350.6 462.9,357.7 457.8,356.2 459.3,351.3 456.9,347.6 
	451.9,347.6 434.3,345.8 434.3,335.7 431.8,331.5 428,331.9 428.6,336.2 424.9,340.6 424.3,348.6 422.6,353.4 416.8,356.6 
	411.7,358.5 408.7,356.9 401.4,364.5 405.5,368.1 405.5,370 403.1,372.2 403.1,379.3 398.5,381.3 393.9,381.7 391.7,377.7 
	389.2,375.3 384.5,378.9 382.1,378.9 382.1,372.1 377.6,377.4 379.2,381.3 379.2,391.6 383.3,394.5 383.3,398 388,401.5 
	392.4,401.8 394.7,407.4 "/>
<polygon class="st7" points="529.9,270.1 546.7,284.5 554.9,284.5 558.7,283.1 567.1,284.5 575.5,285.9 573.7,292 574.2,297.1 
	575.5,298.9 575.1,305 571.2,310.7 563,315.8 569.7,319.8 574.1,319.8 577.8,317.2 582.4,318 587.6,324.3 588.9,331.5 587.7,334.8 
	587.6,342.3 585.8,344.7 586,349.8 589.6,352.8 589.2,359.1 583.5,361.7 576.8,370.7 568,370.7 564.4,375.3 559.2,379 557.3,381 
	555.4,380.6 554.8,377.7 551.1,373.5 546.2,372.7 540.8,376.3 540.5,381.6 536.5,387.8 535.9,392 530,395.5 521.1,396.2 
	515.1,399.5 511.3,399.5 509.3,395.2 501.1,392.7 501.4,387.4 499.6,382.9 503.9,381.4 508.2,376.5 511.3,376.5 520.2,370.6 
	517.5,362.6 511.7,357.9 520.1,354.6 519.8,349.6 521.6,342.9 514.8,337.6 515.4,334.2 504.2,321 507.4,315.7 513,315.2 
	517.5,312.5 518.1,307.2 523.6,299.1 519.2,296 522.6,292.3 523,288.5 521.4,286.3 522.4,280.2 "/>
<polygon class="st3" points="589.2,359.1 593.5,362.6 604.2,362.3 612.9,365.3 622.5,365.1 632.2,368.6 637.2,373.5 640.3,368.6 
	641,363.8 645.3,360.5 643.6,357 648.9,346.3 652,345.6 652,339.7 658.9,339 650.6,326.3 641.3,310.1 641.3,305.3 647.8,302 
	652,296.4 652,287 646.5,274.1 644.7,263.2 648.6,255.8 649.4,250.5 654.5,240.6 655.5,234 663.3,223.7 669.7,218.8 672.7,206.9 
	679.8,200.1 687.5,199.3 689.8,195.5 689.8,192.7 685.2,186.9 682.8,175.5 685.3,171.9 680.6,167.4 672.5,166.6 668.9,162.3 
	662.1,153.7 656.8,160.3 646.9,161.3 641,155.2 633.9,151.7 627.4,156.5 624.6,163.6 622,160.3 617.7,159.3 618.2,156.7 619,154.7 
	617.2,152.7 614.7,154.5 611.4,153.7 610.7,151 614.7,147.4 611.3,147.2 607.8,143.3 603.4,143.7 597.7,146.2 595.5,149.6 
	597.2,151.9 600.7,151.3 603.3,149.1 604.9,151 605.9,155.3 604.5,159.9 601.6,161.8 598.2,160.3 595.7,160 593.1,163.6 
	586.5,160.3 581.1,160.2 569.9,152.8 563.6,159.6 552.8,159.6 550,158 549.7,155.5 547.8,155.5 543.5,159.1 541.7,155.3 
	533.1,157.1 531.8,163.2 543.8,172.2 539.4,176.1 535.6,174.7 530.9,177.4 527,179.2 527.9,185.9 523.6,186.4 523.4,191.7 
	517.9,196.2 518.6,201.5 524.7,208.6 525.6,219.3 522.5,222.4 519.2,223.1 517.1,227.8 517.6,233.2 511.1,239.4 503.7,239.7 
	499.1,244.5 488.4,241.7 483.9,241.7 480.7,245.2 483.6,251 489.7,255.6 499.9,256.1 511.8,253.3 522.2,252.8 523.1,255.6 
	520.6,260.2 520.6,265.7 528.6,266.5 529.8,270.1 546.7,284.5 554.9,284.5 558.7,283.1 575.5,285.9 573.7,292 574.2,297.1 
	575.5,299.7 575.1,305 571.2,310.7 563,315.8 569.7,319.8 574.1,319.8 577.8,317.2 582.4,318 587.6,324.3 588.9,331.5 587.7,334.8 
	587.6,342.3 585.8,344.7 586,349.8 589.6,352.8 "/>
<polygon id="cantonzurich" class="st8" points="391.9,130.5 399.6,130.2 410.1,126.2 409.2,123.5 404.3,123.9 400.7,119.5 409,113 
	414.2,111.1 415.4,106.9 423.9,110 427.2,114.4 426.5,119 430.9,120.1 435.3,116.4 433.1,105.3 437.2,105.3 441.9,102.9 440.7,99.6 
	436.1,96.3 436.1,92.4 443.8,85.4 450,87.5 450,92.2 459.8,103.1 468.8,104.4 477.5,100.6 479.4,95.9 483.8,95.6 484.1,100 
	488.3,103.3 488.2,107.4 482,119.2 479.8,115.7 471.5,112.1 468.4,115.2 470.8,119.7 479.6,122.5 484.1,127.6 490.1,127.8 
	493.9,131.3 490.6,134.2 491.1,140 493.8,143.7 503.8,143.9 505.9,148 504.4,158.4 503.2,162.1 507.1,170.3 507.1,174.5 
	509.5,177.9 509.3,183.5 507.1,187 509.1,189.1 512.4,190.2 517.9,196.2 518.6,201.5 524.7,208.6 525.6,219.3 522.5,222.4 
	519.2,223.1 517.1,227.8 517.6,233.2 511.1,239.4 503.7,239.7 499.1,244.3 488.4,241.3 483.9,241.3 480.7,245 483.6,250.9 
	466.2,255.8 453.1,262.7 453.1,267.8 456.5,273.3 450.7,273.3 448.4,270.3 441.3,270.3 439.3,260.2 434,258.1 428.7,251.8 
	420.7,252.4 410.9,257.3 405.8,257.3 397.7,250.3 391.6,250.3 389.8,242.3 387.6,238.7 387.7,232.6 385.3,227.7 389.6,227.6 
	394.5,225.2 395.5,219.8 400.2,214.8 400.1,212.6 395,214.2 391.6,214.4 388.8,208.6 390.1,200 386,195.9 384.7,191.8 379.4,189.8 
	379.3,187.7 384.3,185.4 385.4,180.6 381.4,175.2 382.9,171.9 383.2,168.9 379.7,166 381.7,162.6 377.8,159.1 377.3,152.4 
	382.3,148.4 382.6,144.8 385.5,144.7 "/>
<polygon class="st4" points="436.8,92.5 430.7,96.7 425.4,93.9 417.8,97.3 418.3,102.8 412.7,101.3 409,103 406,101.3 404,102.7 
	403.1,98.6 396.9,100.1 394.5,95.9 388.9,94.6 389.1,91.8 391.6,90.7 391.6,88.3 389.1,85.3 390.3,80.5 400.8,73.9 400.4,72.1 
	400.9,66.7 408.3,58.4 417,57.5 422.2,54.2 425.2,54.3 427.4,56.5 429.6,54.2 428,51.5 425.4,50.3 427.4,45.9 439.8,48.9 
	439.1,55.7 442.3,62.8 446.5,58.7 446.9,48.9 451.3,52.6 454.7,53.8 455.5,63 459.4,62.3 463.3,60.1 468.2,65.7 463.6,68.4 
	461,73.3 465.5,76.1 465.5,81.2 464.3,87.1 458.9,87.5 455.1,85.9 450.1,87.5 444.1,85.4 "/>
<polygon class="st2" points="464.5,87.3 470.3,86.5 478.9,92.9 481.8,92.4 482.2,90.3 488.8,92.4 494,96.1 495.4,100 502.6,99.8 
	505.7,101.6 513.5,100.5 524.8,93.5 535.4,88.9 542.7,88.9 547.9,91.4 553.5,90.9 563.5,96.9 568,94.7 572.3,95.2 572.9,99.6 
	577.5,103.3 581,103.5 583.9,106.5 598.5,113.5 609.4,123.3 621.4,129.2 620.6,136 631.7,146.6 635,148.6 633.9,151.7 627.4,156.5 
	624.6,163.6 622,160.3 617.7,159.3 618.2,156.7 619,154.7 617.2,152.7 614.7,154.5 611.4,153.7 610.7,151 614.7,147.4 611.3,147.2 
	607.8,143.3 603.4,143.7 597.7,146.2 595.5,149.6 597.2,151.9 600.7,151.3 603.3,149.1 604.9,151 605.9,155.3 604.5,159.9 
	601.6,161.8 598.2,160.3 595.7,160 593.1,163.6 586.5,160.3 581.1,160.2 569.9,152.8 563.6,159.6 552.8,159.6 550,158 549.7,155.5 
	547.8,155.5 543.5,159.1 541.7,155.3 533.1,157.1 531.8,163.2 543.8,172.2 539.4,176.1 535.6,174.7 527,179.2 527.9,185.9 
	523.6,186.4 523.4,191.7 517.9,196.2 512.4,190.2 509.1,189.1 507.1,187 509.2,183.5 509.3,177.9 506.6,174.5 506.6,170.4 
	503,162.1 504.4,158.4 505.9,148 503.8,143.9 493.8,143.7 491.1,140 490.6,134.2 493.9,131.3 490.1,127.8 484.1,127.6 479.6,122.5 
	470.8,119.7 468.4,115.2 471.5,112.1 479.8,115.7 482,119.2 488.2,107.4 488.3,103.3 484.1,100 483.8,95.6 479.4,95.9 477.5,100.6 
	468.8,104.4 459.8,103.1 450,92.2 450.2,87.5 455.2,85.9 459,87.5 "/>
<polygon class="st7" points="609.6,242.3 615.6,244 620.1,246.7 625.8,246.7 629.3,242.4 634.6,241.5 642.9,233.8 646.4,228.4 
	647.4,218.8 649,215.4 649.2,206.3 639.7,207.9 631.5,198.9 627.5,198.8 625.5,196.7 621.2,196.7 615.9,193.8 614,195.4 616,199.5 
	616.4,203.5 609.6,209.3 607.6,213.7 605.2,214.7 603.5,226.8 608.2,232.5 "/>
<polygon class="st2" points="609.6,242.3 608.2,232.5 603.5,226.8 605.2,214.7 607.6,213.7 609.6,209.3 616.4,203.5 616,199.5 
	614,195.4 615.9,193.8 621.2,196.7 625.5,196.7 627.5,198.8 631.5,198.9 639.7,207.9 649.2,206.3 650.4,190.6 658,189.6 
	659.4,191.5 661.9,191.4 668.6,186.8 673.5,183.9 670.6,180.8 675.4,178.4 678.7,173.4 671.6,169.3 661.1,165.2 656.4,164.9 
	654.8,167.4 654.7,170.9 640.3,177.1 634.8,177.8 632.5,181.3 632.5,185.1 626.5,189.1 622.8,189.1 621.1,186.4 617,186.3 
	612.8,188.9 606.2,189.2 603.5,190.6 597.2,190.1 596.2,189.1 588.6,189 585.7,193.3 582.2,193.3 580,202.2 574.6,202.2 
	577.5,209.3 583.4,209.6 584.3,213.3 580,216.1 579.8,217.6 581.9,220.2 581.5,223.8 583,225.1 582.4,227.6 579.5,230.7 
	580.3,233.5 585.1,236.4 592.6,236.5 592.8,235.5 596.1,235.6 598.4,238 603.1,238.3 605.9,242.5 "/>
<text transform="matrix(1 0 0 1 198.671 421.425)" class="st6 st9 st10">BE</text>
<text transform="matrix(1 0 0 1 307.3376 302.9962)" class="st6 st9 st10">LU</text>
<text transform="matrix(1 0 0 1 330.0044 385.9174)" class="st6 st9 st10">OW</text>
<text transform="matrix(1 0 0 1 377.5721 357.2507)" class="st6 st9 st10">NW</text>
<text transform="matrix(1 0 0 1 414.3069 411.3074)" class="st6 st9 st10">UR</text>
<text transform="matrix(1 0 0 1 457.1643 332.9265)" class="st6 st9 st10">SZ</text>
<text transform="matrix(1 0 0 1 535.1643 344.2599)" class="st6 st9 st10">GL</text>
<text transform="matrix(1 0 0 1 544.5914 258.3781)" class="st6 st9 st10">SG</text>
<text transform="matrix(1 0 0 1 409.2581 285.0447)" class="st6 st9 st10">ZG</text>
<text transform="matrix(1 0 0 1 434.5914 188.3781)" class="st6 st9 st10">ZH</text>
<text transform="matrix(1 0 0 1 324.197 193.806)" class="st6 st9 st10">AG</text>
<text transform="matrix(1 0 0 1 230.197 188.3779)" class="st6 st9 st10">BS</text>
<text transform="matrix(1 0 0 1 163.5304 258.3781)" class="st6 st9 st10">BL</text>
<text transform="matrix(1 0 0 1 517.5304 133.9591)" class="st6 st9 st10">BE</text>
<text transform="matrix(1 0 0 1 409.2585 85.3832)" class="st6 st9 st10">BE</text>
<text transform="matrix(1 0 0 1 612.5919 230.5946)" class="st6 st9 st10">AI</text>
<text transform="matrix(1 0 0 1 584.1362 208.478)" class="st6 st9 st10">AR</text>
</svg>
