<?xml version="1.0" encoding="utf-8"?>
<!-- Generator: Adobe Illustrator 20.1.0, SVG Export Plug-In . SVG Version: 6.00 Build 0)  -->
<svg version="1.1" id="allemanie" xmlns="http://www.w3.org/2000/svg" xmlns:xlink="http://www.w3.org/1999/xlink" x="0px" y="0px"
	 viewBox="0 0 719.7 578.9" style="enable-background:new 0 0 719.7 578.9;" xml:space="preserve">
<style type="text/css">
	.st0{fill:#D35E5B;}
	.st1{fill:#ED7569;}
	.st2{fill:#F29391;}
	.st3{fill:#E06761;}
	.st4{fill:#F4A2A2;}
	.st5{fill:#8DC6A4;}
	.st6{fill:#F9C2C2;}
	.st7{fill:#F7B0B0;}
	.st8{fill:#06602C;}
</style>
<g>
	<polygon id="_x3C_Tracé_x3E_" class="st0" points="30.2,256.6 33.2,251.5 34.2,256.2 35.7,258.4 39.4,257.6 45,253.7 51.8,246.4 
		56.9,250.1 60.3,249.8 62.9,243.8 69,243.5 73.2,233.8 77,230.5 77.9,227 82,226.6 84.6,228.7 87.4,226.8 89.9,225.7 91.9,226.5 
		96.8,226.2 99.2,224.6 99.2,222.6 96.3,220.4 100,215.9 102.9,214 103.2,208.3 112,208.3 114.6,211.1 134.3,211.8 143.7,205.2 
		149,204 152.3,200.6 158.4,201.3 164.2,204 175.9,204.3 178.8,205.7 183.1,203.7 189.8,200 187.2,197.6 189.1,194.7 195.3,191.6 
		198,195.5 197.4,199 194,200.8 192.5,206.1 186.1,209.3 177.2,211.4 173.4,219.3 166.6,219.8 161.3,223.4 162.1,226.5 154.9,230.6 
		149.4,234.4 144.1,235.5 144.5,238.4 146.9,243.4 152.1,245.3 154,249.7 154.4,255.6 158,254.4 160.7,254.4 166.6,247.2 
		168.8,248.5 175.3,244.8 175.6,249.2 180,250 180.2,252.9 174.9,259.6 170.3,256.9 164.1,262.4 166.1,266.5 161.5,270.3 
		157.6,270.1 152.8,267.3 150.7,270.4 155.2,278.6 159,278.1 161.7,276.6 166.3,277.2 167.4,285.2 172.9,284.3 175.1,280.6 
		173,272.7 182.1,269.6 187.7,261.3 186.4,256 193.1,256 195,253.5 198.2,253.5 201.6,256.8 202.4,259.5 208,257.7 211.6,257.5 
		215.4,259.6 216.3,255.3 219.7,252.6 223.7,251.1 223.6,245.8 216.6,238.2 215.3,232 210.5,231.2 204.5,225 203.9,219.8 
		200.7,213.6 218.2,212.2 225.7,208.9 236.1,216.5 240.3,222.1 243.7,221.8 245,217.7 249.7,222.1 251.6,218.3 254.6,218.5 
		255,219.9 260.1,219.7 260.3,226.3 262.5,229.6 262.3,234.1 266.3,240.1 266.6,244.5 270.9,248.7 270.9,259.1 274.4,262.4 
		273.8,266.3 268.5,269.5 268.5,271.3 270.7,272.6 270.9,277.9 271.8,278.7 271.9,286.4 270,289.3 270.1,294.8 277.1,303.9 
		276.8,307.8 278,308.9 280.1,309 280.7,307.9 282.6,308.1 284,310.1 289.6,310.7 289.4,312.5 288.4,314 289.4,316.5 289.2,318.6 
		287.4,323.1 285.4,323.3 284.2,328.9 282.4,330.4 281.9,333.4 280.6,334.5 274.7,334.8 269.3,338.1 269.3,340.2 272.4,343.9 
		272.4,346.5 269.4,351.1 266.8,351.2 267.5,357.3 269.1,358.7 269.3,364.8 287.9,378.5 290.8,384 294.1,387 295.5,389.1 
		298.6,389.1 303.3,384.9 321.6,385.2 324.3,389.4 330.3,391.1 334,395.9 337.4,395.8 345.8,391.2 350.1,391.6 354.9,394.8 
		356.4,394.8 356.9,391.9 361,392.3 365.8,396.9 369.1,396.6 379.7,387.5 386.6,387.3 388.6,385.8 392.2,387.2 394.2,389.5 
		394.2,392.9 396.2,393.5 399.3,389.7 403.1,389.6 407.4,392.9 405.8,396.5 406,404.1 407.2,406.3 407.2,410.7 409.2,412.1 
		408.5,420.1 405.4,421.2 396.8,418.2 394.8,418.4 395.4,425.3 397.9,427.7 397.6,431.7 388.1,440.3 388.2,447.3 385.4,451.1 
		385.5,458.5 381.2,463.8 376.8,463.9 369,471.5 360.8,475.2 351.1,475.4 346.9,476.3 346.7,477.8 343.2,477.8 341.3,473.6 
		340,473.6 339.2,474.6 335.4,474.7 324.2,467.2 320,465.9 312.4,465.4 307.5,463.1 303.3,463.2 291.7,471.8 292,474.8 293.8,476.7 
		293.7,478.7 288.5,481.8 284.2,481.7 279.8,488.4 269.8,492.2 262.9,492 257.1,497.4 252.7,498.3 242.7,508.6 235.5,511 
		233.6,513.7 232.7,514.8 229.6,514.5 225.7,510.3 212.6,504.3 207,508 206.7,513.4 204.3,516.1 201,513.2 195.8,514.9 190.5,514.8 
		188.2,518.2 190.3,520.7 194.2,522.1 193.6,524.9 190.3,528.2 186.5,528.1 185.7,526.9 183.2,527 182.3,530 178.2,529.6 
		177.9,525.2 175.6,525 172.5,528.1 169.6,524.6 158.4,528 148.4,535.4 138.6,538.3 136.4,537.2 137.2,527.4 133.1,531 126,533.4 
		124.5,535.7 124.3,542.1 120.3,544.7 115.7,544.5 115.8,531.4 112.4,531.2 112,527.7 109.1,525.8 109.1,522.7 111.9,518.7 
		111.8,512.2 108.4,507.4 110,504.8 113.5,505.5 117.3,503.5 117.4,494.7 115.7,490.7 117.5,487.1 121.7,482.8 121.7,473.8 
		119.1,465.7 124.4,463.4 130.5,455.1 134.2,457.9 138.4,452.6 138.3,443.7 136.2,441.7 136.2,438.6 140.9,437.2 141.8,435.2 
		139.1,431.7 144.1,431.8 147.8,436 150.2,432.2 152.1,431 150.6,427.6 150.7,423.1 152.7,419.1 145.2,415.5 145.2,411.2 
		142.9,409.7 135.2,409.6 132.6,402.9 134.4,399.9 134.8,394 131.7,390.3 135.4,384.8 135.4,379.8 139.2,374.2 139.4,371.3 
		141,370.4 141,367.7 135.2,364.1 139.2,360.3 142.1,363.9 144.6,363.6 147.4,360.3 147.3,351.5 144.3,349.1 136.9,348.6 
		126.7,348.3 125.6,346.7 120.2,346.6 111.6,345.5 112.1,338.4 115,337.1 116.8,337.7 118.4,336.3 118.3,332.1 112.4,333.5 
		111.5,330.3 112.6,321.6 117.1,318.1 117.2,314.4 114.4,307.7 108.2,310.7 97.7,316.5 88.7,318.7 77,319.5 71.5,317.9 68.4,308.9 
		70.7,306.8 71,299.7 75.8,296.4 82.8,292.7 83,288.6 81.1,286.1 81.7,278.7 74.6,274.1 68.4,274.1 68.3,270.5 71.3,267.7 
		69.3,266.9 58,271.2 48.5,272.3 37,278.3 32.2,281.5 31.3,275.6 36.5,267.3 35.5,263.3 	"/>
	<polygon class="st1" points="262.5,229.1 271.7,228.1 278.3,225.7 283.5,228.5 288.6,226.5 291.2,223.9 290.7,219.7 288.4,215.9 
		292.5,213.9 295,215.2 299.3,213.1 301.6,214.9 302.1,217.7 304.2,220.1 304.8,224.6 307.2,226.3 313.2,226.7 314.5,225.1 
		314.7,222.2 317.7,222.3 320.8,219 322.9,219 326.2,222.8 328.2,226.6 333.2,226.1 341.8,222.6 344.1,226.7 342.3,228.3 
		338.9,228.4 342.4,233 348.3,233 349.9,230.7 349.8,224.8 353.7,220.2 353.8,216.6 357.3,216.4 360.9,210.1 362.2,209.9 
		364.7,212.7 372.3,215.6 371.7,222 376.1,227.4 376.1,233.8 382.3,251.9 387,260.2 390.3,263.4 396.9,263.5 397.7,266.2 400,267.8 
		402.9,267.6 405.9,265.7 408.2,265.6 408.3,271.9 398.1,278.7 396.8,283.8 392.7,286.6 392.9,288.9 394.3,290.5 403.6,289.6 
		408.1,291.4 416.3,300 418.7,302.3 422.7,303.1 422,308.4 418.7,311.7 410.7,314.4 411.2,308.1 403.1,305.3 401,305.3 401.1,312.4 
		391.9,312.1 391.5,304.5 388.2,304.3 380.3,315.1 375.8,311.2 370.4,313.5 367.5,313.5 364.1,311.5 360.4,315.7 358.1,315.5 
		355.1,313.7 352.8,315.9 354.1,319.6 355,321.8 352.8,323.1 346.9,323.2 345.3,321.1 343.3,321.6 337.2,326.9 338.1,329.3 
		340.3,331.8 336,335.3 330.8,340.3 327.1,348.5 325.1,347.9 325.1,343.3 322.5,342.9 316.9,348.2 317,358.2 310.7,366.1 311,369.6 
		315.3,376.5 314.9,381 313.5,385.2 303.3,384.9 298.6,389.1 295.5,389.1 294.1,387 290.8,383.9 287.9,378.5 269.3,364.8 
		269.1,358.7 267.5,357.3 266.8,351.2 269.4,351.1 272.5,346.5 272.4,343.9 269.3,340.2 269.3,338.2 274.7,334.8 280.5,334.5 
		281.9,333.4 282.3,330.4 284.2,328.9 285.4,323.3 287.4,323.1 289.2,318.6 289.4,316.5 288.4,314 289.4,312.5 289.6,310.7 
		284,310.1 282.6,308.1 280.7,307.9 280.1,309 278,308.9 276.8,307.8 277.1,303.9 270.1,294.8 270,289.3 271.9,286.4 271.8,278.7 
		270.9,277.9 270.7,272.6 268.5,271.3 268.5,269.2 273.9,266.3 274.3,262.4 270.9,259.1 270.9,249 266.6,244.5 266.1,240.1 
		262.2,234.1 	"/>
	<polygon class="st2" points="195.5,192 190.7,190 190.2,184.6 187.4,183.5 187.3,180.6 183.1,180.4 180,182.9 174.9,182.9 
		167.5,178.5 168.3,171.8 169.8,170.3 174.9,170.4 176.9,175.1 179.6,176.5 183.7,176.3 187.2,174.3 189.6,171.4 189.1,166.3 
		200.4,166.2 198,163 198.4,157.4 200.4,157.9 202.1,160.8 207.3,160.1 210.9,153.1 211.2,148.1 207.5,146.4 207,140.1 210.5,140.6 
		212.1,142.3 218.3,141.7 218.3,138.4 221.9,138.3 222.2,141.3 232.1,145.2 225.5,155.9 225.4,162.1 222.5,167.5 213.6,168.2 
		215.8,182.7 235.9,182 238.3,187.5 248.4,193.7 251.3,192 251.6,187.7 254.3,184.5 259,184.5 261.4,180.8 267.1,178.1 270.4,177.3 
		269.3,174.4 274.2,167.8 279.7,172.4 287.1,167.2 290.3,164.8 290.1,162.3 288.4,156.7 290.6,152.6 291.7,149.9 293.8,149.6 
		296.2,156.7 297.4,160.9 293.5,163.1 294.2,164.6 297.2,166.4 300.6,166.4 302.1,168.6 302.4,173.1 307.1,173.6 307.1,181 
		301.3,188 301.3,193.2 288.7,200.2 288,195.5 276.8,195 277.1,199.5 274,202.1 269,202.6 266.5,207.5 263.6,213.7 257.6,219.8 
		255,219.8 254.6,218.4 251.6,218.2 249.7,222.1 245,217.6 243.7,221.8 240.3,222.1 236.1,216.5 225.7,208.9 218.2,212.2 
		200.7,213.6 203.9,219.8 204.5,225 210.5,231.2 215.3,232 216.6,238.2 223.6,245.8 223.7,251.1 219.7,252.6 216.3,255.3 
		215.4,259.6 211.6,257.5 208,257.7 202.4,259.5 201.6,256.8 198.2,253.5 195.2,253.5 193.1,256 186,256 187.7,261.3 182.1,269.7 
		173,272.7 175.1,280.7 172.9,284.3 167.4,285.2 166.3,277.2 161.7,276.6 159,278.1 155.2,278.6 150.7,270.4 152.8,267.3 
		157.6,270.1 161.5,270.3 166.1,266.5 164.1,262.4 170.3,256.9 174.9,259.6 180.2,252.9 180,250 175.6,249.2 175.3,244.8 
		168.8,248.6 166.6,247.2 160.7,254.4 157.6,254.4 154.4,255.6 154,249.7 152.1,245.3 146.9,243.4 144.5,238.4 144.1,235.5 
		149.4,234.4 162.1,226.5 161.3,223.4 166.6,219.8 173.4,219.3 177.2,211.4 186.1,209.3 192.5,206.1 194,200.8 197.4,199 198,195.5 
			"/>
	<polygon class="st1" points="167.3,178.1 160.6,177.9 161,173.2 156.4,171.5 152.4,167.2 147.3,165.3 145.3,162.6 140.4,159.6 
		140.2,157 146.7,159.6 154.1,159.9 160.7,157.5 166.1,150.3 169.3,149.3 171,146.2 167.8,142.7 162.4,141.7 166.6,136.8 171.8,140 
		175.6,142.7 179.6,142.3 183.3,136.4 184.2,130.7 182.5,128.6 185.2,129 186.4,130.3 187.9,130.2 187.9,125.3 185.4,125.1 
		184.4,125.8 181.7,125.3 181.9,122 187.5,119.9 195.3,112.3 195.9,116 196,120.2 201.4,120.4 201.6,130 204,130.7 207.2,125 
		208.3,117.4 211,114.1 218.7,118.9 223.2,124.3 228.7,124.8 232.2,122.1 236.4,124.9 241.8,126.5 248.8,127.9 251.4,133.5 
		250.4,138.7 256.3,136.2 260.8,129.2 261.7,125.3 266.9,125.1 268.5,130.6 270.7,128.6 272.1,132.5 277.7,137.9 277.9,142.1 
		285.4,142.5 287.4,140.3 288.4,143.8 286.4,147.7 291.7,149.9 288.4,156.7 290.1,162.3 290.3,164.8 279.7,172.4 274.2,167.9 
		269.3,174.4 270.4,177.3 267.1,178.2 261.4,180.8 259,184.5 254,184.5 251.6,187.7 251.3,192 248.4,193.7 238.3,187.4 235.9,182 
		215.8,182.7 213.6,168.2 222.5,167.5 225.4,162.1 225.6,155.9 232.2,145.2 222.4,141.3 221.9,138.3 218.3,138.4 218.3,141.5 
		212.1,142.3 210.4,140.6 206.9,140.1 207.5,146.4 211.2,148.1 210.9,153.1 207.3,160.1 202.1,160.8 200.4,157.9 198.4,157.4 
		198,163 200.4,166.2 189.1,166.3 189.6,171.4 187.2,174.3 183.7,176.3 179.6,176.5 176.9,175.1 174.9,170.4 169.8,170.2 
		168.3,171.7 	"/>
	<polygon class="st1" points="195.3,112.5 198,109.5 201.4,110.1 204.2,102.9 206.9,107.2 210.1,109.3 214.8,105.6 219.5,105.6 
		226.2,101.6 224.4,106.2 226.3,108.6 225.7,113.2 221.5,113.6 218.7,118.9 211,114.1 208.3,117.4 207.2,125 204,130.7 201.6,130 
		201.4,120.4 196,120.2 195.9,116 	"/>
	<polygon class="st3" points="232.3,122.5 241.9,121.1 251.1,116.3 255.9,112 256.8,106.9 259.7,105.4 262.9,106.5 265.1,106.5 
		269,104.8 273.7,105 279.2,110.1 279.3,117.7 282.3,120.6 287.8,120.3 290.8,116.1 293.2,116.3 294.9,117.4 303.9,117.2 305,118.8 
		307.9,118.7 314.2,116.1 315.8,114.2 319.4,114.5 320.8,116.3 324.9,113.1 325.2,108.1 327.6,106.4 332,106.7 335,102.6 
		340.7,102.5 346,97.5 349.5,93.3 352.3,93.3 353.2,94.9 353.3,99.1 355.4,99.1 360.4,96.6 362.5,96.6 363.6,97.8 370.2,98 
		371.1,105.4 374.4,107.4 378.4,111.4 386.9,111.6 389.9,112.8 392,112.4 394.3,109.2 397.4,109.5 400.4,112.2 393.9,127 390.9,127 
		390.7,130.6 385.6,134.6 386.1,141.3 390.1,144.8 388.1,148.2 391.5,151.1 391.3,154.2 389.7,157.4 393.7,162.8 392.6,167.6 
		387.6,169.9 387.7,172 393,174 394.3,178.2 398.4,182.2 397.2,190.8 400,196.6 403.3,196.4 408.4,194.8 408.6,197 403.9,202.1 
		402.8,207.5 397.9,209.8 393.6,210 396.1,214.9 396,221.1 398.1,224.9 394.3,232 395.7,238.2 395.2,248.9 399.6,252.7 399.4,257.3 
		396.9,263.5 390.3,263.4 387,260.2 382.3,251.9 376.1,233.8 376.1,227.7 371.7,222 372.3,215.6 364.7,212.7 362.2,209.9 
		360.9,210.1 357.3,216.4 353.8,216.6 353.7,220.2 349.8,224.9 349.9,230.7 348.3,233 342.2,233 338.9,228.4 342.3,228.2 
		344.1,226.6 341.8,222.6 332.6,226.1 328.2,226.7 326.2,222.8 322.9,219 320.9,219 317.7,222.3 314.7,222.2 314.5,225.1 
		313.2,226.7 307.2,226.3 304.8,224.6 304.2,220.1 302.1,217.7 301.6,214.9 299.3,213.1 295,215.2 292.5,213.9 288.4,215.9 
		290.7,219.7 291.2,223.9 288.6,226.5 283.5,228.5 278.3,225.7 271.7,228.1 262.5,229.6 260.3,226.3 260.1,219.7 257.6,220.1 
		263.6,213.8 269.1,202.6 274,202.1 277.2,199.5 276.9,195 288.2,195.5 288.7,200.2 301.3,193.2 301.3,188.1 307.1,181 307.1,173.9 
		302.4,173.1 302.1,168.6 300.6,166.4 297.6,166.4 294.2,164.6 293.5,163.1 297.4,160.9 293.8,149.6 291.7,149.9 286.4,147.7 
		288.4,143.8 287.4,140.3 285.4,142.5 277.9,142.1 277.7,137.9 272.1,132.5 270.7,128.6 268.5,130.6 266.9,125.1 261.7,125.3 
		260.8,129.2 256.3,136.2 250.4,138.7 251.4,133.5 248.8,127.9 241.8,126.5 236.4,124.9 	"/>
	<polygon class="st2" points="397.4,225 400.2,233 406.1,233 414.5,240.4 419.2,240.4 429.1,235 437,234 442.3,240.3 447.6,242.5 
		449.3,252.7 456.7,252.7 459.2,256 464.8,256 464.8,259.1 463.4,262.7 463.2,266.7 453.5,279.2 446.6,277.8 438.8,283.1 
		433.4,283.1 434.1,278.8 430.4,278.2 425.1,280.1 418.1,277 413.1,272.1 408.3,271.9 408.2,265.6 405.9,265.7 402.9,267.6 
		400,267.8 397.7,266.2 396.9,263.5 399.4,257.3 399.6,252.7 395.2,248.9 395.7,238.2 394.3,231.9 	"/>
	<polygon class="st4" points="464.9,255.5 461.5,250 461.5,244.9 474.6,238.1 491.8,233.2 498,237.8 508.2,238.3 520.1,235.5 
		530.5,235 531.5,237.8 528.9,242.4 528.9,247.9 536.9,248.7 538.3,252 530.7,262.4 529.7,268.5 531.3,270.8 531,274.5 527.5,278.2 
		532,281.4 526.4,289.4 525.8,294.7 521.3,297.4 515.8,297.9 512.6,303.2 523.8,316.4 523.1,319.8 529.9,325.1 528.2,331.8 
		528.4,336.9 520,340.1 506,349.6 501.8,350.1 501.8,342.7 497.7,342.7 497.7,335.1 491.4,332.5 488.3,335.7 483.9,331.9 
		479.6,332.8 471.3,340 466.2,338.4 467.7,333.5 465.3,329.8 460.3,329.9 442.6,327.7 442.6,317.9 440.1,313.7 433.3,314.4 
		428.5,318.4 419.2,320.1 410.9,316.7 410.7,314.4 418.7,311.7 422,308.4 422.7,303.1 418.7,302.3 408.1,291.4 403.6,289.6 
		394.3,290.5 392.9,288.9 392.7,286.6 396.8,283.8 398.1,278.7 408.3,271.9 413.1,272.1 418.1,277 425.1,280.1 430.4,278.2 
		434.1,278.8 433.4,283.1 438.5,283.1 446.6,277.8 453.5,279.3 463.3,266.7 463.7,262.7 465.2,259.1 	"/>
	<polygon class="st5" points="354.9,320.7 362.2,317.5 372.4,317.5 372.4,326 369.3,333.2 371.5,336.5 376.3,338.1 381.3,335.8 
		380.7,347.9 378,355 379.6,363.3 379.4,370.6 376.9,373.3 381.3,379.9 388.6,385.8 392.3,387.2 394.4,389.5 394.4,392.9 
		396.4,393.5 399.4,389.7 403.1,389.6 400.7,384.1 396.3,383.7 391.4,380.3 391.4,376.7 387.4,373.8 387.4,363.5 385.8,359.6 
		390.4,354 390.5,360.5 392.9,360.5 397.6,357.2 400.1,359.7 402.3,363.8 406.8,363.5 411.4,361.5 411.4,354.4 414.4,352.3 
		414.4,350.4 410,346.7 417.1,339.1 420.1,340.7 425.2,338.8 431,335.7 432.7,330.8 433.3,322.9 437,318.4 436.4,314.1 433.4,314.4 
		428.5,318.4 419.2,320.1 411,316.7 410.7,314.4 411.2,307.7 403.1,304.5 401,304.5 401.1,312 391.9,311.9 391.5,304.4 388.2,304.3 
		380.3,315.1 375.8,310.7 370.4,312.5 367.5,312.5 364.1,311 360.4,315.4 358.1,315.4 355.1,313.7 352.8,315.6 	"/>
	<polygon class="st6" points="313,385.4 314.7,381.1 315.2,376.5 310.9,369.6 310.7,366.1 317.1,358.2 316.9,348.2 322.5,342.9 
		325.1,343.3 325.1,348.3 327.1,348.5 330.7,340.3 340.2,331.8 338.1,329.3 337.2,326.9 343.3,321.6 345.3,321.1 346.9,323.2 
		352.8,323.1 355,321.8 362.2,318.4 372.6,318.4 373.1,326 369.7,333.2 371.7,336.5 376.4,338.1 381.3,335.8 380.7,347.9 378,355 
		379.6,363.3 379.4,370.6 376.9,373.3 381.3,379.9 388.6,385.8 386.6,387.3 379.7,387.5 369.1,396.6 365.8,396.8 361,392.2 
		356.9,391.9 356.4,394.8 354.3,394.8 350.1,391.6 345.8,391.3 337.4,395.9 334,395.9 330.3,391.2 324.3,389.5 321.6,385.2 	"/>
	<polygon class="st6" points="407.4,392.9 405.8,396.5 406,404.1 407.2,406.3 407.2,410.7 409.2,412.1 408.5,420.1 405.4,421.2 
		396.8,418.2 394.8,418.4 395.4,425.3 397.9,427.7 397.6,431.7 399.5,432.4 400.1,439.6 399.8,445.4 396.8,454.7 400.7,466.2 
		404.7,472.4 410.1,473.1 413.5,476.1 417.2,472.9 421.8,472.9 423.7,466.9 423.7,460.1 428.5,454.9 436.1,456 440.5,459.7 
		444.1,459.7 446,458.2 450,457.8 450,461 451.7,462.2 456.1,462.2 459.2,458.7 462.3,457.8 462.1,444.3 458.3,442.6 456.1,438.6 
		456.8,431.6 461.6,429.7 461.7,425.5 459.9,423.4 459.9,418.7 463.3,418.7 464.9,415.4 469.9,415.4 479.3,408.9 477.3,405.3 
		482.9,400.7 486.2,406.3 488.7,406.3 493.6,402.1 493.6,394.8 496,394.8 496,390.9 496,383.3 501.9,383.3 509.5,374.8 509.7,369.6 
		507.9,365 512.3,363.6 516.6,358.7 520,358.7 528.5,352.8 525.8,344.9 520,340.1 506,349.6 501.8,350.4 501.8,342.7 497.7,342.2 
		497.7,335.1 491.4,332.5 488.3,335.7 483.9,331.9 479.6,332.8 471.3,340 466.2,338.4 467.6,333.5 465.2,329.8 460.3,329.9 
		442.6,328 442.6,317.9 440.1,313.7 436.4,314.1 437,318.4 433.3,322.9 432.7,330.8 431,335.7 425.1,338.8 420,340.7 417,339.1 
		409.7,346.7 413.9,350.4 413.9,352.3 411.4,354.4 411.4,361.5 406.8,363.5 402.3,363.9 400.1,359.9 397.6,357.5 392.9,361.2 
		390.5,361.2 390.4,354.3 385.9,359.6 387.6,363.5 387.6,373.8 391.7,376.7 391.7,380.3 396.4,383.7 400.7,384.1 403.1,389.6 	"/>
	<polygon class="st7" points="538.2,252.3 555.1,266.7 563.2,266.7 567.1,265.3 575.4,266.7 583.8,268.1 582,274.2 582.5,279.3 
		583.8,281.1 583.5,287.2 579.6,292.9 571.3,298 578.1,302 582.5,302 586.2,299.4 590.8,300.2 596,306.6 597.3,313.7 596.1,317.1 
		596,324.5 594.1,326.9 594.3,332 597.9,335.1 597.6,341.3 591.8,343.9 585.2,352.9 576.4,352.9 572.8,357.5 567.5,361.2 
		565.7,363.2 563.7,362.9 563.1,359.9 559.5,355.8 554.6,354.9 549.2,358.5 548.8,363.8 544.9,370 544.3,374.2 538.4,377.7 
		529.4,378.4 523.4,381.7 519.6,381.7 517.7,377.4 509.5,374.9 509.7,369.7 507.9,365.1 512.3,363.7 516.6,358.7 519.6,358.7 
		528.5,352.8 525.8,344.8 520,340.1 528.4,336.9 528.2,331.8 529.9,325.1 523.1,319.8 523.8,316.4 512.6,303.2 515.8,297.9 
		521.3,297.4 525.8,294.7 526.4,289.4 532,281.4 527.6,278.2 531,274.5 531.4,270.8 529.7,268.5 530.8,262.4 	"/>
	<polygon class="st1" points="597.6,341.3 601.9,344.8 612.6,344.5 621.2,347.6 630.9,347.3 640.5,350.9 645.6,355.7 648.6,350.9 
		649.4,346 653.7,342.7 651.9,339.2 657.3,328.6 660.4,327.8 660.4,322 667.3,321.2 659,308.5 649.7,292.3 649.7,287.5 656.2,284.2 
		660.4,278.6 660.4,269.2 654.9,256.3 653,245.4 656.9,238.1 657.7,232.7 662.8,222.9 663.8,216.3 671.7,205.9 678,201.1 
		681.1,189.1 688.2,182.3 695.8,181.5 698.1,177.7 698.1,174.9 693.5,169.1 691.1,157.7 693.7,154.2 688.9,149.6 680.8,148.8 
		677.3,144.5 670.4,135.9 665.1,142.5 655.2,143.5 649.4,137.4 642.3,133.9 635.7,138.7 632.9,145.8 630.4,142.5 626.1,141.5 
		626.6,139 627.3,136.9 625.6,134.9 623,136.7 619.7,135.9 619.1,133.3 623,129.6 619.6,129.5 616.2,125.5 611.7,125.9 606,128.4 
		603.9,131.9 605.5,134.1 609.1,133.5 611.6,131.4 613.3,133.3 614.3,137.6 612.9,142.1 610,144 606.5,142.5 604,142.3 601.5,145.8 
		594.9,142.5 589.4,142.4 578.3,135.1 572,141.8 561.2,141.8 558.4,140.2 558,137.7 556.1,137.7 551.8,141.4 550,137.5 541.4,139.3 
		540.1,145.4 552.2,154.4 547.7,158.3 543.9,156.9 539.3,159.6 535.3,161.4 536.2,168.1 531.9,168.6 531.8,173.9 526.2,178.4 
		527,183.7 533,190.8 533.9,201.6 530.9,204.6 527.6,205.4 525.4,210.1 525.9,215.4 519.5,221.6 512,222 507.4,226.8 496.8,224 
		492.2,224 489.1,227.5 492,233.2 498.1,237.8 508.2,238.3 520.1,235.5 530.5,235 531.5,237.8 528.9,242.4 528.9,247.9 536.9,248.7 
		538.1,252.3 555.1,266.7 563.2,266.7 567.1,265.3 583.8,268.1 582,274.2 582.5,279.3 583.9,281.9 583.5,287.2 579.6,292.9 
		571.3,298 578.1,302 582.5,302 586.2,299.4 590.8,300.2 596,306.6 597.3,313.7 596.1,317.1 596,324.5 594.1,326.9 594.3,332 
		597.9,335.1 	"/>
	<polygon class="st8" points="400.2,112.7 408,112.5 418.4,108.4 417.6,105.7 412.6,106.2 409.1,101.7 417.3,95.2 422.5,93.3 
		423.8,89.1 432.3,92.2 435.6,96.6 434.8,101.2 439.3,102.3 443.7,98.6 441.4,87.5 445.6,87.5 450.3,85.1 449.1,81.9 444.4,78.5 
		444.4,74.6 452.1,67.6 458.4,69.8 458.3,74.4 468.1,85.3 477.1,86.6 485.9,82.8 487.8,78.1 492.1,77.9 492.5,82.2 496.7,85.5 
		496.5,89.7 490.3,101.4 488.2,97.9 479.8,94.3 476.8,97.4 479.2,101.9 487.9,104.7 492.5,109.8 498.4,110.1 502.2,113.5 499,116.4 
		499.5,122.2 502.1,125.9 512.1,126.2 514.3,130.2 512.8,140.6 511.6,144.3 515.4,152.5 515.4,156.7 517.9,160.1 517.7,165.7 
		515.5,169.2 517.5,171.3 520.8,172.4 526.2,178.4 527,183.7 533,190.8 533.9,201.6 530.9,204.6 527.6,205.4 525.4,210.1 
		525.9,215.4 519.5,221.6 512,222 507.4,226.5 496.8,223.5 492.2,223.5 489.1,227.2 492,233.1 474.5,238 461.4,244.9 461.4,250 
		464.8,255.5 459,255.5 456.7,252.5 449.7,252.5 447.6,242.4 442.3,240.3 437,234 429.1,234.6 419.2,239.5 414.2,239.5 406.1,232.5 
		400,232.5 398.1,224.5 396,220.9 396.1,214.8 393.6,210 397.9,209.8 402.8,207.5 403.9,202.1 408.6,197 408.4,194.8 403.3,196.4 
		400,196.6 397.2,190.8 398.4,182.2 394.3,178.2 393,174 387.7,172 387.6,169.9 392.6,167.6 393.7,162.8 389.7,157.4 391.3,154.2 
		391.5,151.1 388.1,148.2 390.1,144.8 386.1,141.3 385.6,134.6 390.7,130.6 390.9,127 393.9,127 	"/>
	<polygon class="st6" points="445.2,74.7 439,78.9 433.8,76.1 426.2,79.5 426.7,85.1 421.1,83.5 417.4,85.2 414.3,83.5 412.3,84.9 
		411.5,80.8 405.2,82.3 402.8,78.1 397.3,76.8 397.5,74.1 399.9,72.9 399.9,70.5 397.5,67.5 398.6,62.7 409.2,56.2 408.7,54.3 
		409.2,48.9 416.7,40.6 425.3,39.8 430.6,36.4 433.6,36.6 435.8,38.7 438,36.4 436.3,33.7 433.8,32.5 435.8,28.1 448.1,31.1 
		447.5,37.9 450.7,45 454.9,40.9 455.2,31.1 459.6,34.9 463,36 463.8,45.2 467.7,44.5 471.6,42.3 476.5,47.9 472,50.6 469.4,55.5 
		473.9,58.4 473.9,63.4 472.7,69.3 467.2,69.7 463.4,68.2 458.5,69.8 452.4,67.6 	"/>
	<polygon class="st2" points="472.8,69.5 478.6,68.7 487.3,75.1 490.2,74.6 490.5,72.6 497.1,74.6 502.4,78.3 503.7,82.2 511,82 
		514,83.9 521.8,82.7 533.1,75.7 543.8,71.1 551,71.1 556.3,73.6 561.9,73.1 571.8,79.1 576.4,76.9 580.6,77.4 581.3,81.8 
		585.8,85.6 589.4,85.7 592.3,88.8 606.8,95.7 617.8,105.5 629.8,111.4 628.9,118.2 640.1,128.8 643.3,130.8 642.3,133.9 
		635.7,138.7 632.9,145.8 630.4,142.5 626.1,141.5 626.6,139 627.3,136.9 625.6,134.9 623,136.7 619.7,135.9 619.1,133.3 623,129.6 
		619.6,129.5 616.2,125.5 611.7,125.9 606,128.4 603.9,131.9 605.5,134.1 609.1,133.5 611.6,131.4 613.3,133.3 614.3,137.6 
		612.9,142.1 610,144 606.5,142.5 604,142.3 601.5,145.8 594.9,142.5 589.4,142.4 578.3,135.1 572,141.8 561.2,141.8 558.4,140.2 
		558,137.7 556.1,137.7 551.8,141.4 550,137.5 541.4,139.3 540.1,145.4 552.2,154.4 547.7,158.3 543.9,156.9 535.3,161.4 
		536.2,168.1 531.9,168.6 531.8,173.9 526.2,178.4 520.7,172.4 517.5,171.3 515.4,169.2 517.6,165.7 517.7,160.1 514.9,156.7 
		514.9,152.6 511.3,144.3 512.7,140.6 514.3,130.2 512.1,126.2 502.1,125.9 499.5,122.2 498.9,116.4 502.2,113.5 498.4,110.1 
		492.5,109.8 487.9,104.7 479.2,101.9 476.8,97.4 479.8,94.3 488.2,97.9 490.3,101.4 496.5,89.7 496.7,85.5 492.5,82.2 492.1,77.9 
		487.8,78.1 485.9,82.8 477.2,86.6 468.2,85.3 458.4,74.4 458.5,69.8 463.5,68.2 467.4,69.7 	"/>
	<polygon class="st7" points="617.9,224.5 624,226.3 628.5,228.9 634.2,228.9 637.6,224.6 642.9,223.7 651.3,216.1 654.8,210.6 
		655.7,201 657.4,197.6 657.6,188.5 648.1,190.2 639.9,181.1 635.9,181 633.9,178.9 629.6,178.9 624.2,176 622.3,177.7 624.4,181.7 
		624.7,185.8 618,191.5 615.9,195.9 613.6,196.9 611.9,209.1 616.6,214.8 	"/>
	<polygon class="st4" points="617.9,224.5 616.6,214.8 611.9,209.1 613.6,196.9 615.9,195.9 618,191.5 624.7,185.8 624.4,181.7 
		622.3,177.7 624.2,176 629.6,178.9 633.9,178.9 635.9,181 639.9,181.1 648.1,190.2 657.6,188.5 658.8,172.9 666.4,171.8 
		667.7,173.7 670.2,173.6 677,169.1 681.9,166.1 679,163 683.7,160.6 687.1,155.6 680,151.5 669.4,147.4 664.8,147.1 663.1,149.6 
		663.1,153.1 648.6,159.3 643.1,160 640.8,163.5 640.9,167.4 634.8,171.4 631.1,171.4 629.4,168.7 625.4,168.5 621.2,171.1 
		614.5,171.4 611.9,172.8 605.5,172.3 604.5,171.3 597,171.3 594.1,175.5 590.6,175.5 588.4,184.5 582.9,184.4 585.9,191.6 
		591.8,191.8 592.7,195.5 588.3,198.3 588.2,199.9 590.3,202.4 589.9,206 591.3,207.3 590.8,209.8 587.9,213 588.6,215.7 
		593.5,218.6 600.9,218.7 601.1,217.7 604.5,217.8 606.7,220.2 611.5,220.5 614.3,224.8 	"/>
</g>
</svg>
